<?xml version="1.0" encoding="UTF-8" standalone="no"?>
<!DOCTYPE svg PUBLIC "-//W3C//DTD SVG 1.1//EN" "http://www.w3.org/Graphics/SVG/1.1/DTD/svg11.dtd">
<svg width="100%" height="100%" viewBox="0 0 512 512" version="1.1" xmlns="http://www.w3.org/2000/svg" xmlns:xlink="http://www.w3.org/1999/xlink" xml:space="preserve" xmlns:serif="http://www.serif.com/" style="fill-rule:evenodd;clip-rule:evenodd;stroke-linejoin:round;stroke-miterlimit:2;">
    <path d="M71,22.406L71,124.936L273.25,124.936L273.25,143.626L200.03,143.626L200.03,180.594L181.344,180.594L181.344,143.624L79.156,143.624L122.531,197.406L302.971,197.406L302.971,216.094L180.905,216.094L180.905,253.064L162.22,253.064L162.22,216.094L122.813,216.094L122.813,379.656L181.343,379.656L181.343,334.906L157.47,334.906L157.47,316.22L231.625,316.22L231.625,282.56L193.72,282.56L193.72,263.873L290.938,263.873L290.938,282.561L250.313,282.561L250.313,316.217L323.593,316.217L323.593,334.903L291.156,334.903L291.156,379.653L317.469,379.653L317.469,398.341L253.779,398.341L251.093,472.371L232.405,471.684L235.061,398.341L93.032,398.341L93.032,398L92.812,398L64.125,490.844L143.969,490.844L153.779,420.156L172.279,422.719L162.811,490.843L453.25,490.843L424.562,398L394.532,398L394.532,197.78L446.344,133.53L446.344,22.407L381.938,22.407L381.938,74.845L342.718,74.845L342.718,22.406L277.594,22.406L277.594,74.844L239.064,74.844L239.064,22.406L173.938,22.406L173.938,74.844L135.438,74.844L135.438,22.406L71,22.406ZM200.03,334.906L200.03,379.656L272.47,379.656L272.47,334.906L200.03,334.906Z" style="fill:rgb(252,156,156);fill-rule:nonzero;"/>
</svg>
