<?xml version="1.0" encoding="UTF-8" standalone="no"?>
<!DOCTYPE svg PUBLIC "-//W3C//DTD SVG 1.1//EN" "http://www.w3.org/Graphics/SVG/1.1/DTD/svg11.dtd">
<svg width="100%" height="100%" viewBox="0 0 512 512" version="1.1" xmlns="http://www.w3.org/2000/svg" xmlns:xlink="http://www.w3.org/1999/xlink" xml:space="preserve" xmlns:serif="http://www.serif.com/" style="fill-rule:evenodd;clip-rule:evenodd;stroke-linejoin:round;stroke-miterlimit:2;">
    <path d="M353.86,48.45C343.234,48.29 333.41,51.906 324.72,61.703L324.527,61.92L273.941,112.018L274.569,112.721C277.964,116.421 277.675,122.184 273.927,125.525C270.179,128.867 264.422,128.495 261.134,124.7L255.149,117.988C254.365,119.084 253.522,120.148 252.605,121.166C247.489,126.846 240.859,130.614 233.917,132.189L239.355,152.491C241.895,161.471 230.773,167.908 224.253,161.229L183.053,202.032C184.463,201.95 185.883,201.897 187.313,201.897C227.943,201.897 260.929,235.513 260.929,276.569C260.929,277.372 260.893,278.167 260.869,278.964L402.809,125.224C411.061,114.908 412.496,104.336 409.794,93.392C407.08,82.4 399.6,71.29 389.653,62.967C386.568,60.384 383.257,58.082 379.818,56.113L258.56,182.725C255.142,186.41 249.367,186.581 245.736,183.105C242.106,179.627 242.026,173.85 245.561,170.275L361.493,49.225C359.65,48.885 357.813,48.641 355.999,48.531C355.284,48.489 354.571,48.461 353.862,48.451L353.86,48.45ZM232.31,85.597C228.086,85.549 223.434,87.439 219.727,91.557C213.4,98.581 213.809,107.667 218.814,112.177C223.82,116.685 232.902,116.145 239.229,109.12C245.554,102.096 245.146,93.008 240.139,88.5C238.262,86.81 235.811,85.828 233.147,85.633C232.87,85.613 232.591,85.601 232.31,85.598L232.31,85.597ZM204.36,149.537C197.17,149.417 190.73,151.759 184.783,158.462L184.593,158.679L84.859,257.449C95.749,257.979 105.826,261.671 114.245,267.616C115.651,255.782 119.792,244.776 126.03,235.284L126.47,234.614L132.86,226.404C134.775,224.266 136.823,222.256 138.97,220.354L209.877,150.13C208.505,149.862 207.143,149.677 205.807,149.596C205.321,149.566 204.839,149.546 204.359,149.539L204.36,149.537ZM397.66,163.952C395.434,163.97 393.237,164.14 391.072,164.472L245.744,321.88C242.776,325.81 239.431,329.424 235.768,332.686L230.053,338.876C239.953,341.038 249.19,345.036 257.393,350.504C257.389,350.25 257.373,349.999 257.373,349.744C257.373,337.364 261.918,325.988 269.403,317.248L269.316,317.162L270.674,315.818C271.682,314.728 272.734,313.683 273.834,312.688L381.01,206.545C389.53,197.182 401.065,193.231 411.826,193.883C422.734,194.543 432.919,199.306 441.156,206.199C449.394,213.091 455.84,222.234 458.434,232.737C459.222,235.931 459.592,239.277 459.512,242.659C464.132,233.237 464.412,223.564 461.754,213.741C458.27,200.871 449.14,188.067 437.284,178.774L437.284,178.776C426.09,170.006 412.626,164.462 400.014,163.986C399.224,163.958 398.441,163.946 397.66,163.952ZM409.586,211.804C403.874,211.698 398.89,213.494 394.123,218.868L393.93,219.084L311.86,300.364C334.137,302.881 351.932,320.644 354.98,342.949L437.29,253.796C441.744,248.216 442.414,242.963 440.955,237.054C439.487,231.109 435.28,224.754 429.605,220.004C423.927,215.254 416.937,212.226 410.738,211.851C410.351,211.827 409.968,211.811 409.586,211.804ZM187.312,219.901C182.414,219.901 177.668,220.548 173.145,221.751C175.109,221.489 177.107,221.341 179.139,221.341C203.854,221.341 224.206,241.331 224.206,265.907C224.206,290.483 203.851,310.474 179.138,310.474C154.42,310.474 134.068,290.482 134.068,265.907C134.068,263.077 134.35,260.314 134.865,257.63C132.821,263.545 131.699,269.914 131.699,276.57C131.699,308.052 156.572,333.238 187.312,333.238C218.052,333.238 242.922,308.053 242.922,276.57C242.922,245.088 218.052,219.902 187.312,219.902L187.312,219.901ZM179.139,239.341C164.019,239.341 152.069,251.198 152.069,265.907C152.069,280.617 164.014,292.474 179.139,292.474C194.256,292.474 206.206,280.616 206.206,265.907C206.206,251.197 194.262,239.341 179.138,239.341L179.139,239.341ZM175.751,246.698C184.493,246.698 191.774,253.974 191.774,262.718C191.774,271.462 184.489,278.738 175.751,278.738C167.009,278.738 159.726,271.463 159.726,262.718C159.726,253.975 167.013,246.698 175.751,246.698ZM82.141,275.378C60.891,275.378 43.714,292.742 43.714,314.578C43.714,336.413 60.891,353.778 82.14,353.778C103.39,353.778 120.566,336.414 120.566,314.578C120.566,311.568 120.228,308.645 119.609,305.838C118.401,302.98 117.379,300.025 116.529,297C110.232,284.123 97.215,275.377 82.139,275.377L82.141,275.378ZM81.781,286.394C97.371,286.394 108.866,300.494 108.866,316.217C108.866,331.941 97.368,346.037 81.78,346.037C66.19,346.037 54.693,331.939 54.693,316.217C54.693,300.49 66.193,286.393 81.781,286.393L81.781,286.394ZM454.361,286.719C447.454,286.601 441.293,288.837 435.571,295.286L435.378,295.506L339.033,390.921C366.318,392.549 388.283,414.497 390.58,441.847L487.22,337.175C492.604,330.44 493.46,323.892 491.7,316.755C491.466,315.811 491.173,314.862 490.832,313.911L427.449,380.253C424.039,383.956 418.253,384.141 414.612,380.663C410.972,377.183 410.892,371.396 414.437,367.819L479.54,299.675C479.885,299.305 480.26,298.965 480.662,298.657C479.876,297.897 479.058,297.16 478.215,296.454C471.5,290.834 463.227,287.227 455.752,286.774C455.285,286.746 454.822,286.728 454.362,286.72L454.361,286.719ZM81.461,301.449C73.871,301.449 67.721,308.495 67.721,317.187C67.721,325.877 73.871,332.923 81.461,332.923C89.051,332.923 95.204,325.878 95.204,317.187C95.204,308.497 89.052,301.45 81.462,301.45L81.461,301.449ZM306.413,318.049C289.243,318.049 275.373,332.053 275.373,349.743C275.373,367.433 289.243,381.438 306.413,381.438C323.583,381.438 337.453,367.432 337.453,349.742C337.453,332.052 323.583,318.049 306.413,318.049ZM304.128,329.204C315.526,329.204 323.408,339.484 323.408,350.296C323.408,361.11 315.524,371.386 304.128,371.386C292.728,371.386 284.846,361.109 284.846,350.296C284.846,339.482 292.729,329.204 304.126,329.204L304.128,329.204ZM140.75,334.334L126.723,349.526C124.553,352.361 122.133,354.986 119.488,357.364L115.502,361.681C125.126,367.474 133.344,375.427 139.508,384.866C146.223,370.146 157.11,357.76 170.621,349.278C159.487,346.644 149.314,341.452 140.751,334.332L140.75,334.334ZM213.06,355.038C178.23,355.038 150.045,383.591 150.045,419.23C150.045,454.87 178.231,483.424 213.061,483.424C247.891,483.424 276.078,454.87 276.078,419.23C276.078,383.592 247.89,355.037 213.061,355.037L213.06,355.038ZM68.68,370.114C42.442,374.65 22.5,397.775 22.5,425.96C22.5,439.99 27.45,452.762 35.646,462.62C30.556,454.958 27.58,445.752 27.582,435.895L27.582,435.891C27.577,409.581 48.77,387.897 74.872,387.897C100.977,387.897 122.17,409.581 122.164,435.893C122.169,456.806 108.778,474.783 90.178,481.286C112.8,476.221 130.228,457.211 133.254,433.378C132.462,428.778 132.047,424.054 132.047,419.233C132.047,417.163 132.124,415.108 132.273,413.073C127.573,392.31 111.76,376.045 91.563,370.963C88.498,371.491 85.353,371.78 82.141,371.78C77.501,371.78 72.995,371.194 68.679,370.115L68.68,370.114ZM209.16,370.757C236.347,370.757 258.36,393.459 258.36,420.96C258.36,448.463 236.344,471.164 209.16,471.164C181.973,471.164 159.96,448.462 159.96,420.961C159.96,393.461 181.977,370.759 209.16,370.759L209.16,370.757ZM209.16,388.755C191.95,388.755 177.96,402.95 177.96,420.96C177.96,438.972 191.943,453.166 209.16,453.166C226.372,453.166 240.36,438.971 240.36,420.961C240.36,402.951 226.378,388.757 209.16,388.757L209.16,388.755ZM291.016,396.903C292.272,401.401 293.176,406.046 293.658,410.815C297.328,406.383 301.668,402.542 306.51,399.435C306.478,399.437 306.448,399.438 306.416,399.438C301.036,399.438 295.862,398.538 291.016,396.902L291.016,396.903ZM74.876,405.895C58.676,405.895 45.581,419.133 45.586,435.89L45.586,435.895C45.581,452.651 58.676,465.889 74.876,465.889C91.073,465.889 104.171,452.649 104.166,435.894L104.166,435.89C104.171,419.134 91.073,405.896 74.876,405.896L74.876,405.895ZM208.582,406.151C217.549,406.151 223.542,414.096 223.542,422.104C223.542,430.114 217.549,438.056 208.582,438.056C199.616,438.056 193.622,430.113 193.622,422.104C193.622,414.096 199.616,406.151 208.582,406.151ZM335.785,408.815C315.315,408.815 298.772,425.538 298.772,446.581C298.772,467.623 315.316,484.347 335.785,484.347C356.255,484.347 372.797,467.624 372.797,446.581C372.797,425.539 356.254,408.815 335.785,408.815ZM71.833,422.39C80.798,422.39 86.791,430.333 86.791,438.342C86.791,446.352 80.799,454.295 71.833,454.295C62.867,454.295 56.873,446.351 56.873,438.342C56.873,430.332 62.867,422.389 71.833,422.389L71.833,422.39ZM339.756,423.813C354.483,423.813 366.439,436.12 366.439,450.85C366.439,465.58 354.481,477.887 339.755,477.887C325.027,477.887 313.073,465.579 313.073,450.85C313.073,436.12 325.028,423.812 339.755,423.812L339.756,423.813ZM339.756,441.813C334.954,441.813 331.074,445.658 331.074,450.85C331.074,456.042 334.951,459.887 339.756,459.887C344.556,459.887 348.439,456.041 348.439,450.85C348.439,445.657 344.559,441.812 339.755,441.812L339.756,441.813Z" style="fill:rgb(252,156,156);fill-rule:nonzero;"/>
</svg>
