<?xml version="1.0" encoding="UTF-8" standalone="no"?>
<!DOCTYPE svg PUBLIC "-//W3C//DTD SVG 1.1//EN" "http://www.w3.org/Graphics/SVG/1.1/DTD/svg11.dtd">
<svg width="100%" height="100%" viewBox="0 0 512 512" version="1.1" xmlns="http://www.w3.org/2000/svg" xmlns:xlink="http://www.w3.org/1999/xlink" xml:space="preserve" xmlns:serif="http://www.serif.com/" style="fill-rule:evenodd;clip-rule:evenodd;stroke-linejoin:round;stroke-miterlimit:2;">
    <g>
        <path d="M324.563,39.156C323.425,39.181 322.278,39.3 321.125,39.563C311.902,41.66 306.121,50.838 308.219,60.063C308.225,60.095 308.241,60.123 308.249,60.156L285.436,88.344L282.186,92.344L283.874,97.25L297.78,137.813L155.125,161.843C167.468,171.888 175.105,187.398 174.405,204.438C174.259,208.022 173.741,211.518 172.905,214.875L303.437,161.437L303.312,160.469C309.242,168.264 319.224,172.474 329.687,170.593C344.597,167.913 354.371,153.91 351.75,139.093C349.456,126.126 338.502,117.073 325.812,116.813C324,116.773 322.176,116.913 320.312,117.249C317.139,117.819 314.202,118.909 311.562,120.405L303.219,96.061L321.811,73.093C324.031,73.503 326.377,73.5 328.718,72.968C337.941,70.868 343.721,61.691 341.623,52.468C339.788,44.398 332.525,38.981 324.56,39.154L324.563,39.156ZM439.563,68.188C438.286,68.228 437.003,68.406 435.719,68.75C431.529,69.873 428.132,72.464 425.905,75.813L387.218,69.687L383.248,69.063L380.06,71.5L341.404,101.188C347.638,103.578 353.286,107.298 357.934,112.062L388.248,88.782L425.904,94.75C429.858,100.725 437.29,103.8 444.592,101.844C453.73,99.394 459.134,90.014 456.686,80.874C454.696,73.452 448.136,68.478 440.842,68.188C440.422,68.171 439.986,68.174 439.562,68.188L439.563,68.188ZM400.375,126.094L398.5,126.219L368.125,128.312C368.999,130.727 369.695,133.232 370.155,135.842C370.815,139.558 370.997,143.262 370.75,146.874L397.938,145L425.968,154.5C426.062,155.092 426.154,155.69 426.312,156.28C428.762,165.42 438.175,170.855 447.312,168.406C456.45,165.958 461.855,156.544 459.406,147.406C456.958,138.27 447.574,132.866 438.436,135.312C436.724,135.772 435.143,136.475 433.719,137.375L402.155,126.687L400.375,126.094ZM365.812,164.594C362.907,170.266 358.836,175.317 353.875,179.374L396.469,202.938C396.352,204.751 396.534,206.616 397.029,208.468C399.479,217.608 408.861,223.042 417.999,220.594C427.137,218.144 432.541,208.732 430.093,199.594C427.645,190.458 418.26,185.052 409.123,187.5C408.715,187.61 408.33,187.738 407.936,187.875L365.811,164.595L365.812,164.594ZM121.687,168.781C106.415,168.959 93.515,179.169 89.531,193.313L153.157,189.188C148.267,177.598 137.013,169.335 123.437,168.813C122.853,168.791 122.267,168.776 121.687,168.783L121.687,168.781ZM155.313,207.781L89.625,212.063C93.582,225.475 105.711,235.397 120.625,235.97C137.965,236.634 152.6,224.368 155.313,207.78L155.313,207.781ZM163.843,233.781C153.811,247.009 137.676,255.339 119.906,254.657C118.792,254.614 117.689,254.55 116.594,254.437L170.064,338.627C178.346,319.231 196.079,304.845 217.219,301.095L163.843,233.782L163.843,233.781ZM227.656,318.845C204.081,319.12 184.756,337.635 183.781,361.345C183.501,368.169 184.779,374.675 187.281,380.532L259.188,331.315C251.638,323.98 241.408,319.317 229.938,318.877C229.17,318.847 228.418,318.837 227.658,318.847L227.656,318.845ZM269.5,346.875L198.125,395.751C205.549,402.485 215.333,406.738 226.25,407.157C250.855,408.102 271.432,389.164 272.438,364.687C272.696,358.39 271.635,352.371 269.5,346.877L269.5,346.875ZM183.094,407.063L175.624,450.501L280,450.501L270.97,408.938C259.078,419.983 242.99,426.514 225.562,425.845C208.905,425.205 193.962,418.109 183.094,407.065L183.094,407.063ZM144.564,469.188L144.564,493.938L313.938,493.938L313.938,469.188L144.563,469.188L144.564,469.188Z" style="fill:rgb(165,183,243);fill-rule:nonzero;"/>
    </g>
</svg>
