<?xml version="1.0" encoding="UTF-8" standalone="no"?>
<!DOCTYPE svg PUBLIC "-//W3C//DTD SVG 1.1//EN" "http://www.w3.org/Graphics/SVG/1.1/DTD/svg11.dtd">
<svg width="100%" height="100%" viewBox="0 0 512 512" version="1.1" xmlns="http://www.w3.org/2000/svg" xmlns:xlink="http://www.w3.org/1999/xlink" xml:space="preserve" xmlns:serif="http://www.serif.com/" style="fill-rule:evenodd;clip-rule:evenodd;stroke-linejoin:round;stroke-miterlimit:2;">
    <g>
        <path d="M84.438,20.78C84.024,20.785 83.614,20.79 83.188,20.812C80.915,20.925 78.446,21.289 75.812,21.906C65.28,24.373 52.858,31.236 42.094,42C31.33,52.763 24.467,65.186 22,75.72C19.533,86.252 21.262,93.95 25.75,98.438C29.68,102.368 36.08,104.201 44.688,102.938C42.868,97.442 42.931,91.346 44.281,85.656C46.463,76.462 51.781,67.409 59.595,59.594C67.409,51.778 76.431,46.464 85.625,44.281C87.925,43.737 90.32,43.405 92.689,43.313C96.204,43.178 99.711,43.62 103.001,44.72C104.301,36.056 102.481,29.638 98.531,25.688C95.377,22.532 90.635,20.718 84.438,20.781L84.438,20.78ZM94.375,61.906C94.043,61.9 93.681,61.916 93.312,61.938C92.332,61.998 91.232,62.168 89.969,62.468C84.912,63.668 78.427,67.196 72.812,72.812C67.196,78.429 63.667,84.912 62.468,89.969C61.268,95.023 62.218,97.687 63.498,98.969L63.842,99.312L64.154,99.718L105.498,150.968C109.921,141.742 116.344,132.714 124.528,124.528C132.714,116.345 141.742,109.921 150.968,105.498L99.72,64.156L99.313,63.844L98.969,63.5C98.129,62.66 96.696,61.948 94.374,61.906L94.375,61.906ZM179.595,117.25C178.833,117.23 178.031,117.238 177.219,117.28C175.051,117.395 172.679,117.745 170.155,118.344C160.06,120.738 148.113,127.386 137.749,137.75C127.385,148.114 120.737,160.06 118.343,170.156C115.949,180.251 117.616,187.523 121.843,191.75L122.187,192.125L122.499,192.5L126.249,197.125C126.295,196.918 126.325,196.707 126.374,196.5C129.95,181.232 138.967,165.565 152.499,152.03C165.966,138.562 181.549,129.578 196.749,125.97L192.499,122.53L191.749,121.844C188.975,119.069 184.921,117.396 179.593,117.25L179.595,117.25ZM210.781,142.906C207.886,142.896 204.695,143.28 201.221,144.094C190.099,146.698 177.036,153.932 165.721,165.25C154.403,176.568 147.169,189.628 144.564,200.75C142.447,209.786 143.248,216.928 146.22,221.875L146.313,222.031L194.688,281.971C200.905,263.719 212.582,245.231 228.906,228.907C245.238,212.577 263.741,200.904 282,194.687L219.75,144.5C217.193,143.483 214.188,142.917 210.78,142.906L210.781,142.906ZM310.031,208.25C309.334,208.257 308.621,208.277 307.907,208.313C304.093,208.501 300.057,209.111 295.782,210.125C278.684,214.181 259.062,225.13 242.096,242.095C225.131,259.058 214.183,278.681 210.126,295.781C206.071,312.883 208.742,326.521 217.066,334.845L217.408,335.189L217.721,335.595L218.031,336.001C218.431,332.358 219.076,328.683 219.938,325.001C225.188,302.595 238.59,279.131 258.845,258.876C279.1,238.621 302.563,225.218 324.97,219.97C328.672,219.1 332.37,218.457 336.03,218.063L335.594,217.719L335.188,217.405L334.844,217.061C328.991,211.209 320.498,208.143 310.031,208.249L310.031,208.25ZM345.251,236.22C340.301,236.186 334.926,236.82 329.221,238.156C310.959,242.434 290.103,254.054 272.063,272.094C254.023,290.134 242.403,310.99 238.126,329.25C234.936,342.868 235.746,354.53 240.096,363.313L295.97,432.593C296.43,429.408 297.028,426.215 297.78,423C304.1,396.02 320.345,367.592 344.906,343.03C369.466,318.47 397.866,302.257 424.844,295.938C426.899,295.456 428.952,295.048 431,294.688L363.47,240.188L363.437,240.188C358.305,237.613 352.181,236.264 345.25,236.218L345.251,236.22ZM448.345,311.72C447.398,311.725 446.438,311.737 445.47,311.78C440.304,312.016 434.833,312.788 429.125,314.125C406.293,319.473 380.439,333.905 358.095,356.25C335.748,378.595 321.317,404.45 315.969,427.28C310.619,450.113 314.199,468.983 325.874,480.656C333.734,488.518 344.87,492.703 358.28,492.969C357.6,492.366 356.933,491.744 356.28,491.093C342.83,477.641 340.056,457.358 344.78,437.187C349.506,417.015 361.537,396.024 379.688,377.874C397.838,359.724 418.86,347.661 439.031,342.936C444.075,341.756 449.117,341.038 454.064,340.843C468.904,340.257 482.818,344.348 492.907,354.437C493.58,355.109 494.225,355.793 494.845,356.499C494.6,343.061 490.405,331.904 482.532,324.029C474.325,315.822 462.552,311.629 448.346,311.719L448.345,311.72ZM456.625,359.437C455.975,359.442 455.325,359.469 454.657,359.5C451.093,359.667 447.287,360.187 443.282,361.125C427.258,364.879 408.842,375.128 392.908,391.063C385.086,398.885 378.645,407.301 373.658,415.75C375.355,413.724 377.161,411.747 379.096,409.812C396.108,392.802 417.221,384.852 432.316,388.312C426.439,391.077 420.513,395.177 415.158,400.532C398.968,416.722 393.988,437.986 404.033,448.032C411.768,455.765 426.185,454.619 439.783,446.282C436.713,450.85 433.035,455.312 428.816,459.532C410.304,478.042 386.94,485.852 371.753,479.875C379.567,485.985 391.37,487.781 405.909,484.375C421.934,480.621 440.349,470.372 456.284,454.437C472.22,438.503 482.469,420.087 486.224,404.062C489.976,388.038 487.419,375.352 479.724,367.656C474.311,362.246 466.404,359.363 456.629,359.436L456.625,359.437Z" style="fill:rgb(165,183,243);fill-rule:nonzero;"/>
    </g>
</svg>
