<?xml version="1.0" encoding="UTF-8" standalone="no"?>
<!DOCTYPE svg PUBLIC "-//W3C//DTD SVG 1.1//EN" "http://www.w3.org/Graphics/SVG/1.1/DTD/svg11.dtd">
<svg width="100%" height="100%" viewBox="0 0 512 512" version="1.1" xmlns="http://www.w3.org/2000/svg" xmlns:xlink="http://www.w3.org/1999/xlink" xml:space="preserve" xmlns:serif="http://www.serif.com/" style="fill-rule:evenodd;clip-rule:evenodd;stroke-linejoin:round;stroke-miterlimit:2;">
    <g>
        <path d="M23.113,18C26.538,50.11 36.545,77.227 51.193,100.438C72.149,133.641 102.187,158.768 135,180.808L135,158.943C107.437,139.413 83.377,117.707 66.416,90.833C53.43,70.252 44.41,46.607 41.136,18L23.112,18L23.113,18ZM105,18L105,57.512L145.46,71L204.654,71L183,45.285L183,18L105,18ZM201,18L201,38.715L228.188,71L283.813,71L311,38.715L311,18L201,18ZM329,18L329,45.285L307.346,71L366.539,71L407,57.514L407,18L329,18ZM153,89L153,423L359,423L359,89L328.473,89C328.075,97.482 320.991,104.245 312.5,104.25C304.013,104.24 296.935,97.478 296.537,89L186.064,89C190.414,104.944 193.074,120.603 199.194,131.752C203.194,139.039 208.154,144.416 216.279,148.109C219.215,149.443 222.639,150.546 226.624,151.335C226.432,149.568 226.33,147.785 226.319,145.999C226.319,124.291 239.717,106.428 255.999,106.428C255.999,106.428 256,106.428 256,106.428C272.282,106.428 285.68,124.291 285.68,146C285.669,163.432 277.021,178.896 264.494,183.885C269.992,184.117 275.508,184.713 280.814,185.799C289.788,187.189 295.918,191.387 300.988,198.183C306.058,204.98 309.738,214.545 312.166,225.655C316.569,245.807 316.846,270.565 316.863,292.355L291.576,292.355L285.123,390.161C267.285,394.179 247.51,394.324 228.988,390.144L221.695,292.354L195.137,292.354C195.307,270.829 196.375,246.408 201.234,226.409C203.918,215.369 207.749,205.789 212.758,198.915C217.768,192.04 223.626,187.818 231.618,186.315C237.141,185.3 242.715,184.585 248.316,184.173C242.108,181.937 236.611,177.07 232.656,170.31C223.509,169.552 215.636,167.59 208.832,164.496C196.946,159.094 188.79,150.201 183.418,140.414C174.336,123.869 171.703,104.824 167.246,89L153,89ZM494,97.44C488.104,111.987 481.838,125.845 474.9,138.54C452,180.448 423.514,209.406 377,214.346L377,232.42C431.012,227.218 466.058,192.26 490.695,147.172C491.819,145.107 492.921,143.031 494,140.942L494,97.44ZM333.242,114.9C333.243,114.9 333.243,114.9 333.244,114.9C340.387,114.9 346.264,120.777 346.264,127.92C346.264,127.921 346.264,127.921 346.264,127.922C346.264,135.065 340.387,140.942 333.244,140.942C333.243,140.942 333.243,140.942 333.242,140.942C326.099,140.942 320.222,135.065 320.222,127.922C320.222,127.921 320.222,127.921 320.222,127.92C320.222,120.777 326.099,114.9 333.242,114.9ZM306.707,148.2C311.67,148.2 315.754,152.284 315.754,157.247C315.754,157.247 315.754,157.248 315.754,157.248C315.754,162.211 311.67,166.295 306.707,166.295C301.744,166.295 297.66,162.211 297.66,157.248C297.66,152.285 301.744,148.201 306.707,148.201L306.707,148.2ZM494,224.036C483.562,250.196 472.2,273.886 460.416,293.036C444.91,318.233 428.436,335.081 414.976,340.142C408.244,342.672 402.516,342.749 396.244,340.19C390.362,337.79 383.806,332.655 377,323.62L377,349.49C380.984,352.623 385.124,355.09 389.44,356.854C399.858,361.104 411.08,360.838 421.31,356.992C441.766,349.302 459.252,329.274 475.746,302.472C482.026,292.267 488.126,281.004 494,268.93L494,224.036ZM105,441L105,459L247,459L247,441L105,441ZM265,441L265,459L407,459L407,441L265,441ZM73,477L73,494L247,494L247,477L73,477ZM265,477L265,494L439,494L439,477L265,477Z" style="fill:rgb(165,183,243);fill-rule:nonzero;"/>
    </g>
</svg>
