<?xml version="1.0" encoding="UTF-8" standalone="no"?>
<!DOCTYPE svg PUBLIC "-//W3C//DTD SVG 1.1//EN" "http://www.w3.org/Graphics/SVG/1.1/DTD/svg11.dtd">
<svg width="100%" height="100%" viewBox="0 0 512 512" version="1.1" xmlns="http://www.w3.org/2000/svg" xmlns:xlink="http://www.w3.org/1999/xlink" xml:space="preserve" xmlns:serif="http://www.serif.com/" style="fill-rule:evenodd;clip-rule:evenodd;stroke-linejoin:round;stroke-miterlimit:2;">
    <g>
        <path d="M481.5,21.96L435.9,34.29C438.5,39.59 440.2,45.43 440.8,51.59L486.1,39.34L481.5,21.96ZM202.2,22.63L200,40.51L343,57.55L343,56C343,50.3 344,44.83 345.8,39.74L202.2,22.63ZM392,25C374.8,25 361,38.77 361,56C361,73.23 374.8,87 392,87C409.2,87 423,73.23 423,56C423,38.77 409.2,25 392,25ZM348.2,77.81L273.7,132.7L284.3,147.1L359,92.12C354.5,88.07 350.9,83.22 348.2,77.81ZM422.1,94.62C417.3,98.32 411.9,101.2 406,102.9L444.9,170.1L460.5,161.1L422.1,94.62ZM127.9,95.2C127.6,95.21 127.4,95.22 127.2,95.24C123.9,95.56 119.5,98.71 115.4,104C112.9,124.1 112.9,146.6 115.7,166.6L117.4,178.4L105.5,176.7C100.4,176 98.39,175.9 92.59,176.3L83.84,176.9L83.04,168.1C82.24,159.5 79.27,147.4 75.93,138.8C72.52,135.9 70.2,135.4 68.15,135.6C66.3,135.9 63.71,137.1 60.64,140.1C62.45,158.9 64,177 69.34,195C78.97,199.2 92.76,201.4 106.3,200.7L116.3,200.2L115.7,210.2C111.4,284.1 109.6,352.8 114.7,426C122.8,429.7 130.5,431.5 136.6,431.5C142.4,431.5 146.2,430 148.6,428C153.1,385.3 149.2,344.9 146.8,303.2L146.3,293.8L155.7,293.7C166.4,293.6 175.4,291.4 181.6,288.3C187.6,285.5 190.4,281.9 190.9,280.5C196.5,241.9 200.3,207.9 198.1,171.2C198,169 197.4,168.3 196.3,167.4C195.3,166.5 193.3,165.7 191.1,165.6C188.9,165.4 186.5,165.9 185,166.7C183.5,167.5 183,168.2 182.7,169.1C173.3,200.2 165.4,231.1 164.1,263.8L164.1,263.9L146.1,263L146.1,262.9C148.8,211.9 146.7,158.2 143.5,106.7C136.3,97.31 131.3,95.16 127.9,95.2ZM367.5,98.4L313.6,241.3L330.4,247.7L384.4,104.4C378.4,103.5 372.6,101.4 367.5,98.4ZM433.9,210.1L433.9,257.9L426.3,256.1L422.3,227.9L404.5,230.5L410.3,270.9L433.9,276.4L433.9,297L200.9,297C197.8,300 193.8,302.5 189.5,304.6C182.7,307.8 174.5,310.2 165.3,311.2C167.8,350.4 171.1,390.1 166.2,432.9L166,435.3L164.5,437.3C158.1,445.8 147.5,449.5 136.6,449.5C125.6,449.5 113.7,446.2 101.8,439.8L97.39,437.5L97.03,432.6C93.6,386.2 93,341.8 94.04,297L25,297L25,487L487,487L487,297L451.9,297L451.9,258.5L474.9,253.2L479.7,228.4L462.1,225L459.5,238.2L451.9,239.9L451.9,210.1L433.9,210.1Z" style="fill:rgb(165,183,243);fill-rule:nonzero;"/>
    </g>
</svg>
