<?xml version="1.0" encoding="UTF-8" standalone="no"?>
<!DOCTYPE svg PUBLIC "-//W3C//DTD SVG 1.1//EN" "http://www.w3.org/Graphics/SVG/1.1/DTD/svg11.dtd">
<svg width="100%" height="100%" viewBox="0 0 512 512" version="1.1" xmlns="http://www.w3.org/2000/svg" xmlns:xlink="http://www.w3.org/1999/xlink" xml:space="preserve" xmlns:serif="http://www.serif.com/" style="fill-rule:evenodd;clip-rule:evenodd;stroke-linejoin:round;stroke-miterlimit:2;">
    <path d="M179.625,22.313L163.22,58.937C159.962,58.553 156.722,58.333 153.5,58.313C142.923,58.247 132.643,60.121 123.03,63.593L99.78,31.032L55.75,63.188L79.813,96.845C72.603,107.257 67.513,119.345 65.313,132.595L22.593,137.282L27.938,191.532L73.406,186.532C78.488,196.732 85.484,205.904 94,213.502L74.594,256.877L123.969,278.971L143.469,235.407C155.125,236.649 166.549,235.535 177.219,232.407L205.343,270.937L237.063,247.751L248.718,267.907C234.014,279.138 220.873,292.3 209.624,307L160.404,278.656L134.686,325.376L182.811,353.313C175.743,370.247 170.844,388.288 168.468,407.125L112.5,407.125L112.5,460.845L168.72,460.845C170.38,472.898 173.092,484.598 176.75,495.905L346.062,495.905C322.147,485.147 305.5,461.117 305.5,433.188C305.5,395.224 336.254,364.438 374.22,364.438C412.183,364.438 442.97,395.224 442.97,433.188C442.97,461.118 426.3,485.148 402.375,495.906L493.875,495.906L493.875,200.375L482.187,193.969L454.594,242C437.752,234.796 419.786,229.766 401,227.28L401,171.75L347.28,171.75L347.28,227.22C328.977,229.597 311.45,234.403 294.97,241.25L267.844,193.97L231.844,214.22L222.594,201.25C229.674,192.027 235.024,181.32 238.094,169.53L282.531,164.687L277.189,110.437L234.939,114.594C230.019,101.976 222.291,90.641 212.376,81.5L229,44.406L179.625,22.313ZM152.281,106.563C175.581,106.323 195.221,124.39 196.657,147.906C198.137,172.181 179.653,193.05 155.377,194.531C131.099,196.014 110.232,177.557 108.751,153.281C107.271,129.007 125.724,108.139 150.001,106.657C150.761,106.611 151.531,106.571 152.281,106.563Z" style="fill:rgb(165,183,243);"/>
</svg>
