<?xml version="1.0" encoding="UTF-8" standalone="no"?>
<!DOCTYPE svg PUBLIC "-//W3C//DTD SVG 1.1//EN" "http://www.w3.org/Graphics/SVG/1.1/DTD/svg11.dtd">
<svg width="100%" height="100%" viewBox="0 0 512 512" version="1.1" xmlns="http://www.w3.org/2000/svg" xmlns:xlink="http://www.w3.org/1999/xlink" xml:space="preserve" xmlns:serif="http://www.serif.com/" style="fill-rule:evenodd;clip-rule:evenodd;stroke-linejoin:round;stroke-miterlimit:2;">
    <path d="M387.176,255.949C438.519,212.903 471.063,168.437 455.198,141.01C439.333,113.583 384.53,119.524 321.543,142.493C309.94,76.458 287.733,26 256.043,26C224.353,26 202.126,76.448 190.513,142.338C175.847,136.937 160.879,132.392 145.686,128.728C98.596,117.619 67.874,121.861 56.836,140.969C40.92,168.509 73.516,212.955 124.9,256.021C73.515,299.086 40.92,343.531 56.796,371.031C63.817,383.19 78.797,389.326 100.891,389.326C113.534,389.326 128.503,387.266 145.645,383.272C160.838,379.608 175.806,375.063 190.472,369.662C202.074,435.645 224.272,486 256.002,486C287.732,486 309.919,435.552 321.532,369.662C336.198,375.063 351.166,379.608 366.359,383.272C383.501,387.318 398.47,389.326 411.113,389.326C433.207,389.326 448.177,383.149 455.208,371.031C466.245,351.912 454.549,323.188 421.388,287.967C410.614,276.64 399.191,265.95 387.176,255.949ZM370.126,144.829C407.19,136.089 434.298,137.799 440.929,149.278C447.559,160.757 435.472,185.106 409.383,212.821C398.347,224.413 386.612,235.319 374.245,245.478C360.501,234.648 345.531,223.909 329.635,213.48C328.533,194.866 326.701,176.509 324.178,158.986C339.191,153.334 354.536,148.606 370.127,144.83L370.126,144.829ZM285.21,306.624C275.457,312.252 265.717,317.585 255.992,322.623C246.287,317.592 236.547,312.258 226.773,306.623C217,300.988 207.511,295.223 198.306,289.327C197.303,267.138 197.303,244.916 198.306,222.727C207.517,216.838 217.006,211.072 226.773,205.43C236.54,199.788 246.296,194.451 256.043,189.42C265.748,194.451 275.488,199.785 285.262,205.42C295.035,211.055 304.514,216.823 313.698,222.726C314.701,244.915 314.701,267.138 313.698,289.327C304.473,295.216 294.977,300.982 285.21,306.624ZM312.462,309.558C311.494,322.468 310.177,335.008 308.519,347.044C297.276,342.462 285.766,337.334 274.101,331.724C280.546,328.251 286.991,324.654 293.436,320.934C299.881,317.214 306.223,313.422 312.462,309.558ZM237.882,331.734C226.228,337.345 214.717,342.462 203.464,347.054C201.807,335.008 200.489,322.479 199.521,309.568C205.808,313.46 212.146,317.252 218.537,320.945C224.927,324.638 231.375,328.217 237.882,331.683L237.882,331.734ZM181.442,278.198C170.745,270.908 160.553,263.496 150.947,256.042C160.553,248.588 170.745,241.176 181.442,233.886C181.215,241.279 181.099,248.664 181.092,256.042C181.085,263.421 181.202,270.799 181.442,278.177L181.442,278.198ZM199.522,202.485C200.489,189.575 201.807,177.035 203.464,165C215.098,169.756 226.583,174.868 237.903,180.33C231.39,183.83 224.934,187.423 218.537,191.109C212.14,194.795 205.802,198.587 199.521,202.485L199.522,202.485ZM274.102,180.309C285.756,174.698 297.266,169.581 308.519,164.989C310.214,177.434 311.529,189.928 312.462,202.454C306.237,198.611 299.898,194.836 293.446,191.129C286.995,187.422 280.546,183.833 274.101,180.36L274.102,180.309ZM330.552,233.845C341.248,241.135 351.441,248.547 361.046,256.001C351.441,263.455 341.248,270.868 330.551,278.157C330.778,270.765 330.894,263.38 330.901,256.001C330.908,248.622 330.791,241.244 330.551,233.866L330.552,233.845ZM216.744,101.59C227.699,65.144 242.74,42.494 256.001,42.494C269.261,42.494 284.293,65.144 295.257,101.59C299.787,116.981 303.37,132.636 305.985,148.465C289.513,155.034 272.731,162.632 256.063,170.981C239.075,162.436 222.293,154.838 206.037,148.331C208.651,132.547 212.226,116.938 216.744,101.591L216.744,101.59ZM102.641,212.78C76.553,185.065 64.466,160.717 71.086,149.237C77.706,137.757 104.844,136.059 141.887,144.79C157.481,148.562 172.83,153.287 187.847,158.936C185.314,176.438 183.481,194.866 182.379,213.501C166.792,223.797 151.792,234.545 137.862,245.51C125.465,235.329 113.703,224.399 102.642,212.78L102.641,212.78ZM141.898,367.212C104.834,375.953 77.726,374.244 71.096,362.765C64.466,351.285 76.522,326.967 102.641,299.262C113.705,287.643 125.471,276.713 137.872,266.533C151.802,277.498 166.802,288.277 182.39,298.552C183.491,317.187 185.324,335.616 187.856,353.118C172.825,358.751 157.463,363.458 141.856,367.212L141.898,367.212ZM295.3,410.452C284.345,446.898 269.304,469.548 256.043,469.548C242.783,469.548 227.751,446.898 216.787,410.452C212.268,395.101 208.692,379.488 206.079,363.701C222.315,357.214 239.076,349.627 256.043,341.051C273.01,349.585 289.771,357.173 306.007,363.701C303.377,379.489 299.784,395.102 295.248,410.452L295.3,410.452ZM440.98,362.774C434.35,374.254 407.221,375.962 370.178,367.222C354.584,363.449 339.236,358.725 324.22,353.076C326.752,335.573 328.585,317.145 329.686,298.51C345.274,288.214 360.274,277.466 374.204,266.491C386.589,276.686 398.337,287.63 409.384,299.261C435.472,326.966 447.538,351.315 440.929,362.795L440.98,362.774ZM232.899,257.524C232.899,244.975 243.226,234.648 255.775,234.648C268.324,234.648 278.651,244.975 278.651,257.524C278.651,270.073 268.324,280.4 255.775,280.4C243.226,280.4 232.899,270.073 232.899,257.524Z" style="fill:rgb(250,155,155);fill-rule:nonzero;"/>
</svg>
