<?xml version="1.0" encoding="UTF-8" standalone="no"?>
<!DOCTYPE svg PUBLIC "-//W3C//DTD SVG 1.1//EN" "http://www.w3.org/Graphics/SVG/1.1/DTD/svg11.dtd">
<svg width="100%" height="100%" viewBox="0 0 512 512" version="1.1" xmlns="http://www.w3.org/2000/svg" xmlns:xlink="http://www.w3.org/1999/xlink" xml:space="preserve" xmlns:serif="http://www.serif.com/" style="fill-rule:evenodd;clip-rule:evenodd;stroke-linejoin:round;stroke-miterlimit:2;">
    <path d="M50.396,27.148C50.396,27.148 54.281,84.195 71.189,128.883C44.951,136.804 20.008,151.143 20.008,151.143C20.008,151.143 44.648,186.767 71,204.666C91.678,199.201 112.356,194.956 132.88,191.699C133.109,191.071 169.097,189.109 194.27,180.465C202.723,177.608 100.932,78.5 105.234,73.988C109.577,69.418 221.992,160.071 224.543,155.025C238.329,127.987 227.133,94.914 195.068,64.563C157.101,28.538 50.396,27.148 50.396,27.148ZM438.984,33.203C423.522,33.203 409.476,39.902 399.988,50.493C384.684,67.575 387.988,100.717 379.156,116.068C367.161,134.786 304.021,183.816 304.021,183.816C304.021,183.816 347.016,185.606 383.232,201.219C392.105,183.873 394.617,176.143 416.4,158.207C426.34,150.001 443.368,142.341 458.063,135.529C478.468,126.069 491.691,108.541 491.993,86.193C491.993,56.947 468.23,33.203 438.984,33.203ZM236.697,206.498C169.64,206.174 100.474,217.908 31.507,242.67L31.507,334.58C31.507,417.598 98.761,484.852 181.779,484.852L278.965,484.852C361.907,484.852 429.235,417.599 429.235,334.58L429.235,242.67C368.703,219.202 303.755,206.822 236.697,206.498Z" style="fill:rgb(250,155,155);fill-rule:nonzero;"/>
</svg>
