<?xml version="1.0" encoding="UTF-8" standalone="no"?>
<!DOCTYPE svg PUBLIC "-//W3C//DTD SVG 1.1//EN" "http://www.w3.org/Graphics/SVG/1.1/DTD/svg11.dtd">
<svg width="100%" height="100%" viewBox="0 0 512 512" version="1.1" xmlns="http://www.w3.org/2000/svg" xmlns:xlink="http://www.w3.org/1999/xlink" xml:space="preserve" xmlns:serif="http://www.serif.com/" style="fill-rule:evenodd;clip-rule:evenodd;stroke-linejoin:round;stroke-miterlimit:2;">
    <g>
        <path d="M256,54.99C229,54.99 209.582,69.277 198.367,87.22C188.337,103.267 184.164,121.88 183.35,138.182C152.742,153.317 118.835,168.576 91.535,184.176C77.215,192.359 64.73,200.59 55.332,209.436C45.934,218.28 39,228.24 39,239.99C39,244.99 41.44,249.065 44.19,252.055C46.944,255.045 50.244,257.367 54.002,259.535C61.517,263.871 70.992,267.485 81.414,270.611C96.897,275.257 114.237,278.711 129.314,280.188C114.318,306.028 94.361,329.762 76.867,352.503C56.65,378.785 39,403.99 39,431.99C39,435.99 38.956,439.113 39.31,442.25C39.665,445.387 40.566,449.303 43.72,452.406C46.875,455.51 50.737,456.344 53.883,456.686C57.029,457.031 60.198,456.99 64.263,456.99L175.805,456.99C183.902,456.99 189.831,457.482 195.93,453.56C202.03,449.64 204.254,444.285 208.6,436.285L208.688,436.125L208.768,435.959C208.768,435.959 218.491,416.189 230.092,396.571C235.892,386.763 242.189,376.995 247.666,370.073C250.406,366.613 252.97,363.869 254.816,362.319C255.38,361.847 255.636,361.759 256,361.559C256.363,361.759 256.62,361.847 257.184,362.319C259.03,363.869 261.594,366.613 264.334,370.073C269.811,376.995 276.108,386.763 281.908,396.571C293.508,416.189 303.232,435.958 303.232,435.958L303.312,436.123L303.4,436.283C307.746,444.283 309.95,449.606 316.01,453.537C322.068,457.467 327.984,456.987 335.967,456.987L448,456.987C452,456.987 455.12,457.03 458.244,456.683C461.367,456.336 465.242,455.473 468.364,452.351C471.484,449.229 472.348,445.354 472.694,442.231C473.042,439.109 473,435.987 473,431.987C473,403.987 455.35,378.782 435.133,352.499C417.64,329.759 397.683,306.025 382.686,280.184C397.763,278.706 415.103,275.254 430.586,270.608C441.008,267.483 450.483,263.868 457.998,259.533C461.756,257.365 465.056,255.043 467.808,252.053C470.561,249.063 473,244.988 473,239.988C473,228.238 466.066,218.278 456.668,209.434C447.27,200.588 434.785,192.357 420.465,184.174C393.165,168.574 359.258,153.314 328.65,138.18C327.836,121.88 323.662,103.265 313.633,87.22C302.418,69.276 283,54.99 256,54.99Z" style="fill:rgb(250,155,155);fill-rule:nonzero;"/>
    </g>
</svg>
