<?xml version="1.0" encoding="UTF-8" standalone="no"?>
<!DOCTYPE svg PUBLIC "-//W3C//DTD SVG 1.1//EN" "http://www.w3.org/Graphics/SVG/1.1/DTD/svg11.dtd">
<svg width="100%" height="100%" viewBox="0 0 512 512" version="1.1" xmlns="http://www.w3.org/2000/svg" xmlns:xlink="http://www.w3.org/1999/xlink" xml:space="preserve" xmlns:serif="http://www.serif.com/" style="fill-rule:evenodd;clip-rule:evenodd;stroke-linejoin:round;stroke-miterlimit:2;">
    <g>
        <path d="M492.063,21.47L353.375,43.312L396.563,62.718L360.5,85.03C366.377,91.735 371.267,99.548 374.844,108.312L412.688,84.906L410.594,135.812L492.064,21.469L492.063,21.47ZM301.125,76.437C299.517,76.422 297.921,76.477 296.312,76.593C277.012,77.99 257.82,89.078 244.844,113.563L236.938,128.499L228.5,113.874C211.444,84.341 180.954,73.676 155.28,78.718C129.61,83.758 108.96,103.086 110.125,139.748C110.872,163.254 122.395,181.492 139.25,199.061L155.188,189.186C162.256,184.81 169.578,182.699 176.375,182.873C178.641,182.931 180.847,183.251 182.969,183.811C191.455,186.048 197.973,191.994 201.655,199.123C209.019,213.38 205.522,233.777 188.405,244.373L173.218,253.779C188.571,319.371 147.936,353.701 147.936,389.436C147.936,409.628 165.666,424.468 182.811,424.468C200.339,424.468 216.998,410.61 216.998,391.435C216.998,353.961 173.954,310.435 199.935,254.248C213.839,267.79 226.903,282.858 236.81,300.842C243.663,289.019 251.914,278.562 260.842,269.029C287.492,300.879 254.779,335.626 254.779,362.029C254.779,375.443 266.421,385.155 278.686,385.155C290.683,385.155 303.093,374.785 303.093,360.655C303.093,333.122 262.289,296.945 301.405,232.375C303.813,230.382 306.178,228.43 308.53,226.468C323.575,248.211 302.25,271.558 302.25,289.468C302.25,298.931 310.47,305.778 319.125,305.778C327.589,305.778 336.345,298.468 336.345,288.498C336.345,268.841 306.878,247.785 336.155,201.31C340.909,196.31 345.19,191.225 348.813,185.967C357.983,172.654 363.256,158.499 362.688,140.31C361.622,106.22 340.374,84.51 315.438,78.278C310.762,77.111 305.948,76.478 301.125,76.435L301.125,76.437ZM174.75,201.53C172.22,201.655 169.04,202.58 165.03,205.062L19.938,295L19.938,326.75L178.563,228.5C187.893,222.725 188.223,213.838 185.063,207.72C183.483,204.66 181.158,202.65 178.22,201.875C177.484,201.681 176.677,201.565 175.78,201.531C175.445,201.521 175.11,201.515 174.75,201.531L174.75,201.53ZM322.125,368.47C320.023,397.79 303.845,406.73 303.845,423.062C303.845,431.17 312.753,438.375 322.125,438.375C331.292,438.375 340.75,431.193 340.75,422.655C340.75,405.645 324.756,397.835 322.125,368.469L322.125,368.47ZM240.75,386.31C236.72,431.28 212.22,443.23 212.22,469.28C212.22,482.352 226.713,493.342 240.75,493.342C255.1,493.342 268.75,482.288 268.75,469.872C268.75,444.866 243.968,431.206 240.75,386.31Z" style="fill:rgb(250,155,155);fill-rule:nonzero;"/>
    </g>
</svg>
