<?xml version="1.0" encoding="UTF-8" standalone="no"?>
<!DOCTYPE svg PUBLIC "-//W3C//DTD SVG 1.1//EN" "http://www.w3.org/Graphics/SVG/1.1/DTD/svg11.dtd">
<svg width="100%" height="100%" viewBox="0 0 512 512" version="1.1" xmlns="http://www.w3.org/2000/svg" xmlns:xlink="http://www.w3.org/1999/xlink" xml:space="preserve" xmlns:serif="http://www.serif.com/" style="fill-rule:evenodd;clip-rule:evenodd;stroke-linejoin:round;stroke-miterlimit:2;">
    <g>
        <path d="M258.063,19.5C140.613,19.5 42.875,104.662 23.219,216.53L22.779,216.875L23.093,217.281C21.633,225.743 20.603,234.356 20.061,243.095C24.791,239.095 29.545,235.225 34.311,231.47L34.374,231.53C180.854,115.63 340.081,119.46 481.718,231.53L481.748,231.5C486.535,235.26 491.32,239.115 496.061,243.125C495.521,234.365 494.493,225.731 493.029,217.25L493.312,216.875C493.177,216.769 493.04,216.669 492.905,216.562C473.26,104.68 375.522,19.5 258.062,19.5L258.063,19.5ZM258.063,38.188C359.305,38.188 444.405,106.465 469.969,199.531C403.107,152.801 331.753,128.661 259.905,128.221C187.815,127.777 115.248,151.174 46.185,199.471C71.775,106.439 156.845,38.189 258.061,38.189L258.063,38.188ZM259.906,165.094C240.178,164.956 220.398,166.864 200.626,170.844C172.356,189.482 153.75,221.524 153.75,258C153.75,294.69 172.578,326.857 201.125,345.438C220.553,349.182 240.029,351.008 259.469,350.906C278.049,350.808 296.617,348.954 315.093,345.376C343.566,326.783 362.343,294.639 362.343,258C362.343,221.564 343.77,189.553 315.563,170.906C297.059,167.159 278.495,165.224 259.905,165.094L259.906,165.094ZM162,181.314C117.642,196.394 73.53,222.088 30.375,258.938C73.109,295.328 117.558,320.693 162.595,335.438C145.395,314.283 135.063,287.325 135.063,258C135.063,229.017 145.161,202.36 162,181.312L162,181.314ZM354.188,181.406C370.976,202.44 381.03,229.06 381.03,258C381.03,287.296 370.725,314.23 353.563,335.375C398.918,320.515 443.369,295.018 485.719,258.969C443.049,222.542 398.941,196.651 354.186,181.405L354.188,181.406ZM258.063,198.781C264.306,198.781 270.318,199.738 275.969,201.531C266.869,206.169 260.624,215.621 260.624,226.531C260.624,242.023 273.196,254.595 288.687,254.595C299.847,254.595 309.482,248.061 313.999,238.625C316.103,244.702 317.249,251.211 317.249,258.001C317.249,290.691 290.751,317.189 258.061,317.189C225.371,317.189 198.875,290.69 198.875,258C198.875,225.31 225.373,198.78 258.063,198.78L258.063,198.781ZM495.938,274.876C489.135,280.606 482.268,286.061 475.344,291.282C475.322,291.429 475.304,291.575 475.281,291.722C406.316,346.96 333.245,375.089 259.814,375.564C186.347,376.04 112.136,348.876 40.844,291.784C40.822,291.638 40.804,291.492 40.782,291.346C33.868,286.128 27.002,280.649 20.189,274.908C28.874,398.63 132.153,496.47 258.063,496.47C383.983,496.47 487.267,398.614 495.938,274.875L495.938,274.876ZM47.156,320.096C115.846,370.102 188.071,394.716 259.936,394.251C331.558,393.788 402.492,368.475 468.969,320.095C442.216,411.305 357.989,477.782 258.061,477.782C158.141,477.782 73.916,411.292 47.155,320.096L47.156,320.096Z" style="fill:rgb(250,155,155);fill-rule:nonzero;"/>
    </g>
</svg>
