<?xml version="1.0" encoding="UTF-8" standalone="no"?>
<!DOCTYPE svg PUBLIC "-//W3C//DTD SVG 1.1//EN" "http://www.w3.org/Graphics/SVG/1.1/DTD/svg11.dtd">
<svg width="100%" height="100%" viewBox="0 0 512 512" version="1.1" xmlns="http://www.w3.org/2000/svg" xmlns:xlink="http://www.w3.org/1999/xlink" xml:space="preserve" xmlns:serif="http://www.serif.com/" style="fill-rule:evenodd;clip-rule:evenodd;stroke-linejoin:round;stroke-miterlimit:2;">
    <g>
        <path d="M255.295,19.137C174.005,18.97 94.94,61.107 51.33,136.643C-13.58,249.069 24.82,392.577 137.248,457.486C249.675,522.396 393.158,483.896 458.066,371.471C522.976,259.045 484.54,115.598 372.113,50.688C335.223,29.39 294.993,19.218 255.295,19.138L255.295,19.137ZM327.559,123.577C351.447,123.677 375.136,129.624 396.677,142.053C469.234,183.92 490.262,283.68 443.515,364.603C396.77,445.52 299.768,477.276 227.21,435.41C154.654,393.543 133.67,293.71 180.416,212.79C213.286,155.89 270.979,123.337 327.559,123.576L327.559,123.577ZM397.413,165.975C411.121,188.301 416.455,217.573 412.886,248.77C406.186,236.62 396.443,226.297 383.931,219.094C343.861,196.024 290.206,213.47 264.391,258.059C238.573,302.645 250.191,357.799 290.263,380.866C300.783,386.923 312.247,390.176 323.897,390.88C287.45,413.45 246.86,418.34 214.901,399.896C212.925,398.756 211.017,397.533 209.163,396.25C217.186,404.792 226.501,412.266 237.063,418.36C301.336,455.447 386.753,427.423 428.161,355.742C467.199,288.164 453.014,206.215 397.413,165.975ZM344.303,228.015C354.577,228.138 364.769,230.748 374.079,236.107C405.857,254.402 414.957,297.593 394.483,332.953C374.01,368.313 331.893,382.15 300.113,363.855C272.555,347.99 262.11,313.325 273.173,281.335C277.435,298.308 292.895,311.012 311.13,311.012C332.615,311.012 350.215,293.38 350.215,271.902C350.215,252.562 335.942,236.379 317.412,233.35C325.418,230.02 333.842,228.193 342.25,228.023C342.935,228.01 343.62,228.007 344.305,228.016L344.303,228.015Z" style="fill:rgb(250,155,155);fill-rule:nonzero;"/>
    </g>
</svg>
