<?xml version="1.0" encoding="UTF-8" standalone="no"?>
<!DOCTYPE svg PUBLIC "-//W3C//DTD SVG 1.1//EN" "http://www.w3.org/Graphics/SVG/1.1/DTD/svg11.dtd">
<svg width="100%" height="100%" viewBox="0 0 512 512" version="1.1" xmlns="http://www.w3.org/2000/svg" xmlns:xlink="http://www.w3.org/1999/xlink" xml:space="preserve" xmlns:serif="http://www.serif.com/" style="fill-rule:evenodd;clip-rule:evenodd;stroke-linejoin:round;stroke-miterlimit:2;">
    <g>
        <path d="M367.564,19.436C367.546,19.469 367.549,19.631 367.549,19.946L349.549,19.946C349.549,25.203 351.751,28.729 354.049,32.064C356.349,35.4 359.164,38.568 362.263,41.864C368.46,48.46 375.839,55.519 381.757,62.467C387.674,69.414 391.751,76.301 392.489,80.705C393.227,85.109 392.976,87.541 385.577,92.441C379.262,96.626 369.049,97.334 355.749,94.724C342.449,92.114 326.799,86.43 311.103,80.489C295.407,74.549 279.683,68.359 265.216,64.915C250.749,61.472 236.576,60.175 225.326,68.187C207.588,80.821 199.586,101.333 205.601,120.367C207.285,125.701 209.961,130.811 213.593,135.595C219.22,135.163 224.89,134.945 230.548,134.945C233.385,134.945 236.228,135.003 239.066,135.11C230.033,128.815 224.879,121.646 222.762,114.945C219.116,103.405 223.032,91.918 235.768,82.848C239.755,80.008 248.515,79.443 261.048,82.426C273.578,85.409 288.92,91.339 304.728,97.322C320.538,103.306 336.828,109.352 352.281,112.385C367.734,115.418 383.086,115.685 395.518,107.449C406.866,99.931 411.988,88.154 410.24,77.729C408.493,67.305 402.228,58.742 395.46,50.794C388.69,42.846 381.04,35.562 375.38,29.538C372.548,26.525 370.224,23.813 368.87,21.848C367.853,20.373 367.617,19.332 367.562,19.434L367.564,19.436ZM221.55,153.186C186.876,154.969 154.46,166.902 142.334,184.546C134.534,200.28 128.724,217.77 124.912,236.771C159.536,250.343 190.702,257.729 221.549,258.933L221.549,244.946L205.549,244.946L205.549,162.946L221.549,162.946L221.549,153.186L221.55,153.186ZM239.55,153.186L239.55,162.946L255.55,162.946L255.55,244.946L239.55,244.946L239.55,258.932C270.328,257.732 301.424,250.375 335.957,236.862C332.167,217.642 326.425,200.018 318.754,184.535C306.621,166.897 274.214,154.969 239.549,153.185L239.55,153.186ZM223.55,180.946L223.55,226.946L237.55,226.946L237.55,180.946L223.55,180.946ZM121.94,254.924C115.39,306.036 122.188,366.711 143.133,433.242L143.209,433.484L143.269,433.73C146.391,446.017 156.814,456.079 172.769,463.33C188.727,470.582 209.656,474.51 230.573,474.57C251.491,474.63 272.406,470.817 288.337,463.605C304.267,456.395 314.675,446.332 317.817,433.762L317.899,433.428L318.009,433.1C338.912,370.39 345.642,307.81 338.879,255.033C262.684,284.033 198.163,283.993 121.939,254.923L121.94,254.924Z" style="fill:rgb(165,239,172);fill-rule:nonzero;"/>
    </g>
</svg>
