<?xml version="1.0" encoding="UTF-8" standalone="no"?>
<!DOCTYPE svg PUBLIC "-//W3C//DTD SVG 1.1//EN" "http://www.w3.org/Graphics/SVG/1.1/DTD/svg11.dtd">
<svg width="100%" height="100%" viewBox="0 0 512 512" version="1.1" xmlns="http://www.w3.org/2000/svg" xmlns:xlink="http://www.w3.org/1999/xlink" xml:space="preserve" xmlns:serif="http://www.serif.com/" style="fill-rule:evenodd;clip-rule:evenodd;stroke-linejoin:round;stroke-miterlimit:2;">
    <path d="M86.236,28.564L44.988,138.564L467.012,138.564L425.764,28.564L86.236,28.564ZM119,156.564L119,332.634C195.024,361.504 316.976,361.504 393,332.634L393,156.564L375,156.564L375,293.992C367.84,290.332 359.04,287.342 348.693,284.756C324.485,278.704 291.953,275.116 256,275.116C248.15,275.116 240.474,275.296 233,275.626C232.983,263.616 233.002,251.606 233.04,239.594L257.053,179.564L238.05,179.564L215,237.194L215,276.76C195.472,278.372 177.875,281.114 163.307,284.756C152.961,287.342 144.16,290.333 137,293.992L137,156.564L119,156.564ZM208,179.564L208,195.564L212.266,195.564L218.666,179.564L208,179.564ZM276.44,179.564L250.84,243.564L268.707,243.564L294.309,179.564L276.44,179.564ZM80,202.564L80,220.564L101,220.564L101,202.564L80,202.564ZM155,202.564L155,220.564L197,220.564L197,202.564L155,202.564ZM304.492,202.564L288.092,243.564L304,243.564L304,220.564L357,220.564L357,202.564L304.492,202.564ZM411,202.564L411,220.564L423,220.564L423,300.564L480,300.564L480,282.564L441,282.564L441,202.564L411,202.564ZM256,293.114C290.738,293.114 322.208,296.689 344.326,302.219C355.386,304.982 364.121,308.309 369.361,311.405C373.738,313.992 374.726,315.83 374.937,316.115C374.977,316.058 375.001,316.041 375.001,316.115C375.001,316.188 374.978,316.17 374.937,316.115C374.727,316.398 373.737,318.235 369.362,320.821C364.122,323.919 355.387,327.246 344.328,330.011C322.21,335.541 290.74,339.114 256.002,339.114C221.264,339.114 189.794,335.54 167.676,330.011C156.616,327.246 147.881,323.919 142.641,320.821C138.264,318.235 137.276,316.398 137.065,316.114C137.025,316.17 137.001,316.188 137.001,316.114C137.001,316.041 137.024,316.058 137.065,316.114C137.275,315.83 138.265,313.992 142.64,311.404C147.88,308.308 156.615,304.982 167.674,302.218C180.639,298.975 196.834,296.413 215,294.842L215,323.562L233,323.562L233,293.652C240.456,293.305 248.138,293.112 256,293.112L256,293.114ZM393,351.779C360.04,363.395 321.05,370.199 281,372.196L281,399.646C321.88,397.622 361.4,390.611 393,378.608L393,351.779ZM119,351.799L119,378.629C128.95,382.406 139.683,385.692 151,388.481L151,361.16C139.857,358.496 129.144,355.375 119,351.8L119,351.799ZM169,365.001L169,392.409C198.46,398.066 230.842,400.662 263,400.219L263,372.772C231.01,373.216 198.84,370.638 169,365.002L169,365.001ZM393,397.778C387.804,399.608 382.475,401.331 377,402.924L377,428.082C382.527,426.395 387.863,424.572 393,422.622L393,397.778ZM119,397.788L119,422.615C146.454,433.041 179.89,439.697 215,442.595L215,417.155C180.628,414.313 147.55,407.853 119,397.789L119,397.788ZM359,407.625C320.012,416.715 275.962,420.262 233,418.295L233,443.74C276.22,445.708 320.805,442.127 359,432.963L359,407.625ZM119,441.78C120.642,450.934 127.428,459.365 135,463.484L135,446.926C129.525,445.333 124.196,443.609 119,441.779L119,441.78ZM393,441.787C380.2,446.3 366.5,450.099 352.166,453.16L352.166,472.89C368.686,468.635 392.762,457.664 393,441.787ZM153,451.627L153,470.902C186.85,480.159 226.556,483.324 256,483.436C285.185,483.436 312.113,481.071 334.166,476.943L334.166,456.573C275.506,466.34 209.02,464.688 153,451.627Z" style="fill:rgb(165,183,243);fill-rule:nonzero;"/>
</svg>
