<?xml version="1.0" encoding="UTF-8" standalone="no"?>
<!DOCTYPE svg PUBLIC "-//W3C//DTD SVG 1.1//EN" "http://www.w3.org/Graphics/SVG/1.1/DTD/svg11.dtd">
<svg width="100%" height="100%" viewBox="0 0 512 512" version="1.1" xmlns="http://www.w3.org/2000/svg" xmlns:xlink="http://www.w3.org/1999/xlink" xml:space="preserve" xmlns:serif="http://www.serif.com/" style="fill-rule:evenodd;clip-rule:evenodd;stroke-linejoin:round;stroke-miterlimit:2;">
    <path d="M256,26C192,58 112,80 32,80C32,126.047 36.726,169.503 45.02,209.69C70.515,207.132 98.15,207.257 126.88,208.63L119.27,178.184L117.248,170.098L183.146,148.131L194.012,213.325C222.332,215.661 250.919,218.145 278.912,219.563C293.269,214.893 306.985,211.233 319.342,205.203L327.122,158.521L328.854,148.131L394.752,170.099L385.174,208.415C394.381,213.341 405.577,223.325 409.144,230.761C412.496,238.063 411.84,246.094 409.4,254.915C411.67,261.125 411.71,267.862 409.83,274.202C408.18,279.772 404.88,285.176 399.986,289.176C400.396,299.282 394.572,308.696 385.389,312.529C380.344,322.949 370.304,334.579 360.243,338.207C357.67,339.077 355.004,339.648 352.3,339.907L342.01,381.067L294.03,357.077L301.137,314.43C293.959,311.563 286.384,308.254 277.99,304.672C255.484,307.54 232.94,310.372 210.605,312.885L217.971,357.078L169.991,381.068L154.323,318.4C128.951,320.434 104.163,321.69 80.38,321.688C126.423,426.23 197.21,490 256,490C352,490 480,320 480,80C400,80 320,58 256,26ZM168.854,171.87L138.752,181.904L182.01,354.932L198.03,346.924L168.854,171.869L168.854,171.87ZM343.146,171.87L339.219,195.432C348.976,191.35 360.593,186.606 370.733,191.959L373.247,181.901L343.145,171.868L343.146,171.87ZM360.838,207.566C355.33,208.32 345.594,212.221 335.488,217.286C316.645,228.338 300.191,230.756 281.525,237.734C252.211,236.216 222.261,233.844 197.095,231.822L207.633,295.052C233.406,292.124 258.223,289.062 280.563,286.207C288.598,289.579 296.978,293.267 304.166,296.257L309.322,265.314L308.83,249.268C340.226,248.303 349.785,231.468 355.455,223.128C357.705,219.822 360.395,213.488 360.879,209.574C361.041,208.254 360.909,208.007 360.837,207.566L360.838,207.566ZM375.436,223.871C372.733,229.595 370.153,233.558 367.466,238.438C374.664,242.345 382.953,244.224 393.389,244.653C393.815,241.658 393.505,239.84 392.784,238.271C391.589,235.667 387.514,231.623 378.958,225.556C377.448,224.646 376.284,224.152 375.434,223.872L375.436,223.871ZM90.806,225.897C68.256,225.807 47.116,226.96 28.074,230.153C17.47,251.583 18.099,274.601 29.644,301.233C65.976,304.849 106.822,303.876 149.867,300.571L131.517,227.165C117.562,226.427 103.942,225.95 90.807,225.897L90.806,225.897ZM354.216,251.2C352.302,252.749 350.308,254.197 348.244,255.54C350.537,264.88 358.944,267.37 368.066,269.45C375.826,271.18 384.424,272.026 391.196,272.252C391.782,271.257 392.244,270.194 392.572,269.086C393.225,266.884 393.274,264.531 392.952,262.606C378.297,261.893 365.326,258.348 354.215,251.199L354.216,251.2ZM332.381,263.225C330.832,263.747 329.267,264.217 327.687,264.635L325.634,276.955C327.353,272.842 330.133,269.259 333.69,266.572C333.19,265.482 332.753,264.365 332.38,263.225L332.381,263.225ZM345.253,280.57C343.785,281.464 342.54,282.91 342.058,284.387C341.42,286.34 340.968,287.755 343.813,289.92C347.458,292.058 353.323,294.357 359.558,295.533C364.681,296.5 370.098,296.809 374.362,296.738L377.238,296.271C379.212,295.953 381.862,292.756 381.99,289.718C376.3,289.212 370.186,288.363 364.154,287.018C357.562,285.548 351.014,283.691 345.254,280.571L345.253,280.57ZM324.023,286.61L313.973,346.924L329.991,354.932L334.711,336.052C325.286,330.257 320.111,321.09 320.243,312.164C320.328,306.352 322.823,300.72 326.896,296.547C325.21,293.373 324.246,289.961 324.024,286.611L324.023,286.61ZM339.956,308.52C338.756,309.23 338.269,310.52 338.241,312.428C338.201,315.106 339.503,319.016 346.815,322.038C347.479,322.171 350.15,322.628 354.433,321.168C357.257,320.205 360.505,318.371 363.659,314.358C361.167,314.065 358.685,313.686 356.219,313.221C350.677,312.176 345.089,310.777 339.956,308.521L339.956,308.52Z" style="fill:rgb(165,183,243);fill-rule:nonzero;"/>
</svg>
