<?xml version="1.0" encoding="UTF-8" standalone="no"?>
<!DOCTYPE svg PUBLIC "-//W3C//DTD SVG 1.1//EN" "http://www.w3.org/Graphics/SVG/1.1/DTD/svg11.dtd">
<svg width="100%" height="100%" viewBox="0 0 512 512" version="1.1" xmlns="http://www.w3.org/2000/svg" xmlns:xlink="http://www.w3.org/1999/xlink" xml:space="preserve" xmlns:serif="http://www.serif.com/" style="fill-rule:evenodd;clip-rule:evenodd;stroke-linejoin:round;stroke-miterlimit:2;">
    <path d="M208.7,22.36L231.1,99.59C240,97.93 249.2,97.1 258.7,97.1C267.2,97.1 275.5,97.78 283.6,99.12L305.8,22.36L208.7,22.36ZM311.8,68.62L301.8,103.4C317,108.2 330.9,115.7 342.6,126.1L368.1,102.3C352.1,87.51 333,75.95 311.8,68.62ZM202.9,69.48C181.9,77.15 163,89.09 147.3,104.2L172.8,128C172.9,127.9 173,127.7 173.2,127.6C184.6,117 198.1,109.3 213,104.2L202.9,69.48ZM97.56,83.35L59.71,139L145.8,169.1C149.5,159.1 154.4,150 160.3,142L97.56,83.35ZM415.8,83.35L355.5,139.7C361.9,147.9 367.2,157.3 371.2,167.8L453.6,139L415.8,83.35ZM268,116L268,433.5L361.4,433.5L361.4,218.6C361.4,183.3 349.9,158.2 331.6,141.3C315.4,126.3 293.3,117.7 268,116ZM249.4,116C224.2,117.7 202.1,126.3 185.8,141.3C167.6,158.1 156.1,183.3 156.1,218.6L156.1,433.5L249.4,433.5L249.4,116ZM412.4,173.3L376.6,185.8C378.8,196 380,206.9 380,218.6L380,227.9L418.9,227.9L418.9,218.6C418.9,202.8 416.6,187.6 412.4,173.3ZM105,174.7C101.1,188.6 98.95,203.3 98.95,218.6L98.95,227.9L137.5,227.9L137.5,218.6C137.5,207.4 138.6,196.9 140.6,187.2L105,174.7ZM65.7,246.5L65.7,302.7L137.5,302.7L137.5,246.5L65.7,246.5ZM380,246.5L380,302.7L446,302.7L446,246.5L380,246.5ZM98.95,321.3L98.95,358.8L137.5,358.8L137.5,321.3L98.95,321.3ZM380,321.3L380,358.8L418.9,358.8L418.9,321.3L380,321.3ZM56.16,377.4L56.16,433.5L137.5,433.5L137.5,377.4L56.16,377.4ZM380,377.4L380,433.5L455.8,433.5L455.8,377.4L380,377.4ZM146.7,452.1L107.1,489.6L404.5,489.6L371.5,452.1L146.7,452.1Z" style="fill:rgb(165,183,243);fill-rule:nonzero;"/>
</svg>
