<?xml version="1.0" encoding="UTF-8" standalone="no"?>
<!DOCTYPE svg PUBLIC "-//W3C//DTD SVG 1.1//EN" "http://www.w3.org/Graphics/SVG/1.1/DTD/svg11.dtd">
<svg width="100%" height="100%" viewBox="0 0 512 512" version="1.1" xmlns="http://www.w3.org/2000/svg" xmlns:xlink="http://www.w3.org/1999/xlink" xml:space="preserve" xmlns:serif="http://www.serif.com/" style="fill-rule:evenodd;clip-rule:evenodd;stroke-linejoin:round;stroke-miterlimit:2;">
    <g>
        <path d="M240.028,26L240.028,247.481L257.065,256L274.102,247.481L274.102,26L240.028,26ZM222.99,60.074C142.77,60.074 86.693,116.151 86.693,196.37L205.953,196.37L222.99,213.407L222.99,60.074ZM289.008,60.074L289.008,213.407L306.045,196.37L425.305,196.37C425.305,116.151 369.228,60.074 289.008,60.074ZM69.657,213.407L69.657,247.481L119.704,247.481L86.694,213.407L69.657,213.407ZM111.185,213.407L145.259,247.481L179.333,247.481L145.259,213.407L111.185,213.407ZM169.75,213.407L203.824,247.481L222.991,247.481L222.991,238.963L197.435,213.407L169.75,213.407ZM314.565,213.407L289.009,238.963L289.009,247.481L308.176,247.481L342.25,213.407L314.565,213.407ZM366.741,213.407L332.667,247.481L366.741,247.481L400.815,213.407L366.74,213.407L366.741,213.407ZM425.306,213.407L392.296,247.481L442.343,247.481L442.343,213.407L425.306,213.407ZM86.694,264.52L86.694,298.594L207.019,359.288L212.699,322.791L112.25,281.557L103.731,264.52L86.694,264.52ZM408.269,264.52L399.75,281.557L299.302,322.791L304.982,359.288L425.306,298.594L425.306,264.52L408.269,264.52ZM240.028,266.65L222.99,366.74L257.064,383.777L291.138,366.74L274.101,266.647L257.064,275.166L240.027,266.647L240.028,266.65ZM78.176,314.564L31.324,356.092L31.324,415.722L93.084,322.018L78.176,314.564ZM433.824,314.564L418.917,322.018L480.676,415.721L480.676,356.091L433.824,314.564ZM109.056,330.536L40.907,432.759L105.861,477.481L164.426,358.222L109.056,330.537L109.056,330.536ZM402.944,330.536L347.574,358.221L406.139,477.481L471.093,432.758L402.944,330.536ZM180.398,365.675L120.768,486L210.213,486L222.991,434.889L248.546,434.889L248.546,398.685L180.398,365.675ZM331.602,365.675L263.454,398.685L263.454,434.888L289.009,434.888L301.787,486L391.231,486L331.601,365.676L331.602,365.675Z" style="fill:rgb(165,183,243);fill-rule:nonzero;"/>
    </g>
</svg>
