<?xml version="1.0" encoding="UTF-8" standalone="no"?>
<!DOCTYPE svg PUBLIC "-//W3C//DTD SVG 1.1//EN" "http://www.w3.org/Graphics/SVG/1.1/DTD/svg11.dtd">
<svg width="100%" height="100%" viewBox="0 0 512 512" version="1.1" xmlns="http://www.w3.org/2000/svg" xmlns:xlink="http://www.w3.org/1999/xlink" xml:space="preserve" xmlns:serif="http://www.serif.com/" style="fill-rule:evenodd;clip-rule:evenodd;stroke-linejoin:round;stroke-miterlimit:2;">
    <g>
        <path d="M249.28,19.188L249.28,19.438C231.166,58.072 204.215,91.798 171.594,122.375L209.314,118.437L157.969,183.469L182.779,175.562L149.155,230.437L165.685,240.28L100.435,332.437L136.53,332.625L84.844,416.219L148.406,408.093L160.406,440.187L226.844,414.905L215.5,493.28L268.438,493.28L261.906,425.063L300.094,441.469L310.281,416.686L354.564,437.656L410.97,416.906L373.906,352.812L361.469,350.53L368.249,367.72L376.093,387.625L356.155,379.845L305.249,359.937L305.249,395.688L291.093,387.094L221.718,345.094L200.123,366.344L182.093,384.094L184.248,358.874L186.373,334.219L204.561,335.779L213.779,326.687L218.969,321.593L225.187,325.343L286.562,362.499L286.562,332.593L299.312,337.563L343.03,354.655L337.938,341.749L331.781,326.093L348.314,329.123L393.782,337.468L359.252,298.528L335.627,312.561L328.939,316.529L323.814,310.655L309.534,294.218L309.752,295.435L291.346,298.655L285.376,264.342L279.626,231.279L301.626,256.624L332.814,292.499L376.721,266.469C352.051,246.926 337.214,232.599 327.063,217.655L327.876,230.311L329.846,261.311L311.096,236.561L276.626,191.124L254.376,237.937L240.532,267.062L236.689,235.03L233.189,206.187L249.721,204.219L266.345,169.249L272.939,155.374L282.219,167.594L307.219,200.53L306.469,189L305.563,174.72L319.033,179.656L341.81,188L315.685,152.844L259.842,123.969L250.904,144.187L241.248,166.124L233.528,143.436L226.06,121.561L243.03,115.781L246.748,107.343L250.748,98.218L259.592,102.811L308.967,128.341L325.434,122.779C282.014,88.469 260.804,53.893 249.278,19.186L249.28,19.188Z" style="fill:rgb(165,183,243);fill-rule:nonzero;"/>
    </g>
</svg>
