<?xml version="1.0" encoding="UTF-8" standalone="no"?>
<!DOCTYPE svg PUBLIC "-//W3C//DTD SVG 1.1//EN" "http://www.w3.org/Graphics/SVG/1.1/DTD/svg11.dtd">
<svg width="100%" height="100%" viewBox="0 0 512 512" version="1.1" xmlns="http://www.w3.org/2000/svg" xmlns:xlink="http://www.w3.org/1999/xlink" xml:space="preserve" xmlns:serif="http://www.serif.com/" style="fill-rule:evenodd;clip-rule:evenodd;stroke-linejoin:round;stroke-miterlimit:2;">
    <g>
        <path d="M251.813,20.5C251.033,20.492 250.255,20.503 249.469,20.53C238.464,20.92 227.184,25.672 217.093,38.344L211.937,44.812L204.874,40.469C191.204,32.033 173.926,28.903 159.374,31.719C144.822,34.533 133.344,42.435 128.03,57.093L124.406,67.061L115,62.22C98.757,53.88 90.283,53.752 83.25,56.906C77.644,59.421 71.794,65.461 65.156,74.281L147.594,138C160.514,142.168 179.384,142.086 198.344,137.187C217.294,132.292 236.207,122.747 249.969,109.781L281.093,32.876C274.497,26.424 264.673,21.356 254.155,20.596C253.377,20.538 252.592,20.509 251.811,20.501L251.813,20.5ZM265,121.28L264.406,121.875C247.606,138.372 225.366,149.511 203.031,155.281C196.148,157.061 189.247,158.356 182.471,159.095C178.789,165.207 175.744,171.357 173.281,177.565L173.813,177.532C175.213,201.71 185.648,220.512 200.563,238.408L186.22,250.378C177.93,240.431 170.482,229.616 164.938,217.564C164.018,240.791 169.16,264.782 177.718,289.784L160.031,295.846C144.416,250.228 139.089,203.463 161.031,159.471C153.645,158.883 146.605,157.511 140.126,155.221L139.782,155.095C135.522,159.175 131.432,163.463 127.532,167.97C95.892,204.553 78.502,253.27 87.596,291.22C92.466,311.544 101.228,330.733 113.752,347.094C117.405,346.796 121.008,346.604 124.532,346.564C136.117,346.426 146.932,347.658 156.564,350.187C159.604,350.985 162.544,351.963 165.377,353.062C172.861,352.265 180.622,351.844 188.597,351.844C217.071,351.844 242.9,357.141 262.44,366.314C270.026,369.874 276.88,374.162 282.44,379.124C282.393,378.382 282.377,377.631 282.377,376.874C282.377,372.306 283.227,367.969 284.815,363.874C275.877,355.492 270.283,345.328 270.283,333.687C270.283,317.567 281.033,304.341 296.503,294.687C296.515,290.063 297.396,285.667 299.033,281.531C288.868,272.801 282.378,261.976 282.378,249.439C282.378,241.522 284.972,234.297 289.441,227.845C284.971,221.393 282.378,214.168 282.378,206.251C282.378,202.438 282.976,198.795 284.098,195.313C274.41,186.71 268.284,176.131 268.284,163.938C268.284,151.83 274.338,141.344 283.91,132.782C277.97,128.182 271.678,124.277 265.004,121.282L265,121.28ZM376.438,123.625C350.416,123.625 326.931,129.058 310.75,137.188C294.57,145.318 286.97,155.25 286.97,163.938C286.97,172.625 294.57,182.588 310.75,190.718C326.93,198.848 350.416,204.25 376.438,204.25C387.66,204.25 398.416,203.232 408.313,201.437L408.313,184.407C422.175,182.339 433.723,178.507 441.125,173.625L441.125,191.188C441.453,191.028 441.803,190.881 442.125,190.718C458.305,182.588 465.938,172.625 465.938,163.938C465.938,155.251 458.306,145.318 442.125,137.188C425.945,129.058 402.459,123.625 376.437,123.625L376.438,123.625ZM472.938,191.25C469.604,194.832 465.655,198.11 461.281,201.094L461.531,230.124C474.076,222.601 480.031,213.927 480.031,206.25C480.031,201.462 477.721,196.285 472.939,191.25L472.938,191.25ZM301.094,206.72C301.359,215.296 308.981,225.045 324.874,233.03C341.056,241.16 364.541,246.562 390.562,246.562C406.878,246.562 422.198,244.432 435.344,240.844L435.969,213.564C418.803,219.589 398.389,222.938 376.436,222.938C347.878,222.938 321.962,217.248 302.374,207.406C301.939,207.188 301.522,206.942 301.094,206.719L301.094,206.72ZM303.064,241.53C301.719,244.224 301.062,246.882 301.062,249.437C301.062,258.125 308.694,268.089 324.875,276.219C341.055,284.349 364.541,289.749 390.563,289.749C403.757,289.749 416.293,288.365 427.563,285.936L427.563,261.874C416.007,264.086 403.561,265.249 390.563,265.249C362.003,265.249 336.057,259.559 316.469,249.719C311.641,247.293 307.129,244.549 303.061,241.529L303.064,241.53ZM478.031,241.53C473.964,244.55 469.451,247.294 464.626,249.72C463.244,250.413 461.82,251.066 460.376,251.72L460.376,274C473.711,266.323 480.032,257.346 480.032,249.437C480.032,246.889 479.37,244.219 478.032,241.531L478.031,241.53ZM485.531,278.28C483.501,280.308 481.295,282.236 478.907,284.063L478.907,316.531C489.221,309.527 494.157,301.761 494.157,294.781C494.157,289.515 491.341,283.787 485.532,278.281L485.531,278.28ZM315.407,292.344C315.277,293.161 315.187,293.984 315.187,294.781C315.189,303.471 322.82,313.401 339.001,321.531C355.181,329.661 378.667,335.095 404.689,335.095C419.642,335.095 433.753,333.32 446.126,330.251L446.126,300.376C429.822,305.572 410.861,308.439 390.563,308.439C362.005,308.439 336.058,302.749 316.47,292.907C316.11,292.727 315.762,292.529 315.406,292.345L315.407,292.344ZM301.813,313.656C293.148,320.194 288.97,327.282 288.97,333.686C288.97,342.376 296.6,352.339 312.78,360.469C328.962,368.599 352.447,373.999 378.47,373.999C388.01,373.999 397.19,373.289 405.812,371.969L405.812,353.779C405.435,353.782 405.065,353.779 404.687,353.779C376.129,353.779 350.182,348.091 330.594,338.249C318.134,331.989 307.734,323.691 301.814,313.655L301.813,313.656ZM464.345,344.344C456.415,347.14 447.779,349.35 438.625,350.938L438.625,363C440.545,362.187 442.405,361.35 444.157,360.47C453.977,355.535 460.627,349.933 464.345,344.344ZM473.5,362.5C469.73,366.27 465.29,369.684 460.375,372.75L460.375,401.438C473.71,393.76 480.031,384.783 480.031,376.875C480.031,372.285 477.893,367.338 473.501,362.5L473.5,362.5ZM124.78,365.313C114.64,365.428 103.558,366.726 92.156,369.375C69.353,374.675 49.694,384.381 36.906,395.063C24.118,405.743 19.166,416.451 20.626,424.188C22.086,431.924 30.019,439.021 45.406,443.063C60.794,447.103 82.26,447.267 105.063,441.969C114.253,439.833 122.92,436.999 130.843,433.655L130.843,413.03C145.373,406.544 156.31,398.655 161.219,391.125L161.219,415.5C173.321,405.078 178.049,394.672 176.624,387.125C175.164,379.39 167.199,372.323 151.811,368.281C144.118,366.261 134.921,365.198 124.781,365.314L124.78,365.313ZM189.437,370.531C192.147,374.426 194.047,378.811 194.969,383.689C196.097,389.672 195.603,395.539 193.843,401.219C203.665,403.779 212.655,407.292 220.499,411.689C224.889,414.149 228.969,416.957 232.624,420.032C241.646,417.869 249.197,414.88 254.562,411.346L254.562,431.876C270.745,424.266 278.062,414.986 278.062,407.564C278.062,400.134 270.728,390.838 254.499,383.221C238.445,375.684 215.204,370.641 189.436,370.531L189.437,370.531ZM301.157,375.471C301.113,375.938 301.063,376.415 301.063,376.876C301.063,385.564 308.693,395.526 324.875,403.656C341.055,411.786 364.541,417.189 390.563,417.189C403.757,417.189 416.293,415.805 427.563,413.376L427.563,386.53C412.793,390.53 396.133,392.72 378.469,392.72C349.909,392.72 323.962,387 304.374,377.156C303.288,376.61 302.209,376.046 301.154,375.469L301.157,375.471ZM304,412.81C302.042,416.067 301.062,419.294 301.062,422.373C301.062,431.061 308.694,441.023 324.875,449.153C341.055,457.283 364.541,462.686 390.563,462.686C403.757,462.686 416.293,461.302 427.563,458.873L427.563,432.5C416.007,434.712 403.561,435.875 390.563,435.875C362.003,435.875 336.057,430.185 316.469,420.345C311.999,418.099 307.826,415.568 303.999,412.812L304,412.81ZM477.125,412.81C473.293,415.572 469.1,418.093 464.625,420.342C463.243,421.036 461.819,421.689 460.375,422.342L460.375,446.936C473.71,439.258 480.031,430.281 480.031,422.373C480.031,419.296 479.078,416.065 477.126,412.81L477.125,412.81ZM184.5,418.22C181.03,422.603 176.928,426.77 172.312,430.625C156.652,443.707 134.652,454.268 109.312,460.155C100.172,462.28 91.202,463.627 82.562,464.281C85.762,469.598 91.392,474.823 99.625,479.439C113.323,487.116 133.315,492.282 155.5,492.282C165.577,492.282 175.18,491.198 183.97,489.315L183.97,468.471C197.828,466.403 209.38,462.568 216.78,457.688L216.78,476.095C226.803,469.145 231.625,461.205 231.625,453.72C231.625,444.997 225.073,435.677 211.375,428C204.025,423.88 194.843,420.482 184.5,418.22Z" style="fill:rgb(165,183,243);fill-rule:nonzero;"/>
    </g>
</svg>
