<?xml version="1.0" encoding="UTF-8" standalone="no"?>
<!DOCTYPE svg PUBLIC "-//W3C//DTD SVG 1.1//EN" "http://www.w3.org/Graphics/SVG/1.1/DTD/svg11.dtd">
<svg width="100%" height="100%" viewBox="0 0 512 512" version="1.1" xmlns="http://www.w3.org/2000/svg" xmlns:xlink="http://www.w3.org/1999/xlink" xml:space="preserve" xmlns:serif="http://www.serif.com/" style="fill-rule:evenodd;clip-rule:evenodd;stroke-linejoin:round;stroke-miterlimit:2;">
    <g>
        <path d="M256.438,19.375C208.728,19.375 161.016,33.785 120.344,62.595C133.366,77.685 146.658,92.722 159.5,107.063C175.538,95.381 191.982,88.206 208.188,84.781L218.063,74.907L224.688,68.282L231.281,74.908L239.001,82.628C317.736,88.272 379.541,177.761 340.407,258.158L458.907,376.658C513.354,285.985 501.497,166.778 423.282,88.564C377.17,42.45 316.806,19.376 256.44,19.376L256.438,19.375ZM66.5,27.063L29.53,64.03C67.48,93.864 109.682,129.936 144.53,160.875L151.937,167.469L144.937,174.469L97.562,221.843L117.25,241.5L151.75,207L419.875,475.156L497.219,494.436L475.374,419.656L448.397,392.678L448.437,392.625L330.687,274.875L330.655,274.92L207.25,151.5L244.344,114.406L224.688,94.75L178.218,141.188L171.25,148.125L164.687,140.845C133.5,106.334 96.644,64.837 66.5,27.062L66.5,27.063ZM65.22,117.125C-1.735,209.41 6.38,339.035 89.593,422.25C142.523,475.18 214.226,497.698 283.155,489.875C151.655,490.872 36.351,361.312 76.03,226.719L71.156,221.843L77.75,215.218L81,211.968C88.028,193.456 98.076,174.951 111.5,156.748C96.63,143.756 80.95,130.315 65.22,117.123L65.22,117.125ZM185.594,163.155C197.877,163.155 207.814,173.123 207.814,185.405C207.814,187.629 207.482,189.755 206.874,191.781L443.814,428.751L430.624,441.939L194.47,205.813C191.75,206.998 188.75,207.656 185.594,207.656C173.31,207.656 163.344,197.692 163.344,185.406C163.344,173.121 173.31,163.156 185.594,163.156L185.594,163.155Z" style="fill:rgb(165,183,243);fill-rule:nonzero;"/>
    </g>
</svg>
