<?xml version="1.0" encoding="UTF-8" standalone="no"?>
<!DOCTYPE svg PUBLIC "-//W3C//DTD SVG 1.1//EN" "http://www.w3.org/Graphics/SVG/1.1/DTD/svg11.dtd">
<svg width="100%" height="100%" viewBox="0 0 512 512" version="1.1" xmlns="http://www.w3.org/2000/svg" xmlns:xlink="http://www.w3.org/1999/xlink" xml:space="preserve" xmlns:serif="http://www.serif.com/" style="fill-rule:evenodd;clip-rule:evenodd;stroke-linejoin:round;stroke-miterlimit:2;">
    <g>
        <path d="M352.75,39.47L319.656,122.844L430.812,234.124L489.032,175.844L352.75,39.47ZM192.406,44.688C94.156,111.662 25.536,205.934 22.936,333.594C85.186,213.777 185.393,108.502 278.156,63.844L192.406,44.687L192.406,44.688ZM97.75,60.156L68.187,89.72C75.463,96.68 82.717,103.613 90,110.563C98.887,100.173 108.37,90.213 118.313,80.656L97.75,60.156ZM451.563,60.156L425.688,86L454.406,114.75C463.316,106.39 472.228,98.022 481.126,89.656L451.563,60.156ZM187.625,149.906C178.185,158.458 168.801,167.502 159.562,176.969C184.825,201.099 210.088,225.292 235.25,249.719L261.438,223.593L187.625,149.905L187.625,149.906ZM340.938,170.626L68,443.155L97.313,472.375C180.793,376.245 273.07,285.877 367.125,196.843L340.937,170.623L340.938,170.626ZM312.688,274.781C303.996,283.201 295.338,291.634 286.718,300.095C342.614,355.475 397.884,412.448 451.875,472.532L481.313,443.158L312.688,274.78L312.688,274.781Z" style="fill:rgb(165,183,243);fill-rule:nonzero;"/>
    </g>
</svg>
