<?xml version="1.0" encoding="UTF-8" standalone="no"?>
<!DOCTYPE svg PUBLIC "-//W3C//DTD SVG 1.1//EN" "http://www.w3.org/Graphics/SVG/1.1/DTD/svg11.dtd">
<svg width="100%" height="100%" viewBox="0 0 512 512" version="1.1" xmlns="http://www.w3.org/2000/svg" xmlns:xlink="http://www.w3.org/1999/xlink" xml:space="preserve" xmlns:serif="http://www.serif.com/" style="fill-rule:evenodd;clip-rule:evenodd;stroke-linejoin:round;stroke-miterlimit:2;">
    <path d="M344.578,493.54L227.364,491.516L118.9,338.536L133.255,287.183L168.519,296.563L208.664,338.596L191.197,278.722L215.033,243.364L172.285,139.33L215.45,59.88L287.884,82.348L334.144,162.808L304.67,167.808L266.192,132.791L288.76,180.855L288.088,218.219L261.998,236.443L296.948,237.727L344.093,261.562L372.843,233.688L411.331,252.745L421.978,290.323L403.008,276.539L324.842,316.506L279.859,301.116L285.719,273.963L242.953,277.237L266.526,289.15L257.036,312.093L315.073,343.378L335.413,422.801L319.963,457.531L349.36,437.171L416.19,427.733L344.58,493.543L344.578,493.54ZM186.054,490.002L132.574,487.706L160.237,423.7L194.617,473.395L186.054,490.002ZM99.274,452.962L88.194,418.087L52.691,407.883L87.549,396.793L97.761,361.293L108.851,396.148L144.353,406.368L109.496,417.45L99.276,452.96L99.274,452.962ZM352.257,419.754L330.692,335.526L402.734,296.536L456.417,355.858L437.752,408.088L352.257,419.754ZM169.47,280.677L110.337,265.065L90.039,195.905L156.103,158.455L193.043,242.581L169.47,280.678L169.47,280.677ZM341.576,241.705L303.191,222.045L304.765,183.185L348.372,173.268L375.125,212.564L341.578,241.704L341.576,241.705ZM400.421,194.475L386.187,149.05L340.047,135.59L385.457,121.328L398.917,75.196L413.169,120.606L459.309,134.084L413.899,148.319L400.422,194.475L400.421,194.475ZM327.01,124.9L298.344,68.138L269.372,60.178L292.017,18.46L321.329,32.738L339.169,92.28L327.009,124.9L327.01,124.9Z" style="fill:rgb(165,183,243);fill-rule:nonzero;"/>
</svg>
