<?xml version="1.0" encoding="UTF-8" standalone="no"?>
<!DOCTYPE svg PUBLIC "-//W3C//DTD SVG 1.1//EN" "http://www.w3.org/Graphics/SVG/1.1/DTD/svg11.dtd">
<svg width="100%" height="100%" viewBox="0 0 512 512" version="1.1" xmlns="http://www.w3.org/2000/svg" xmlns:xlink="http://www.w3.org/1999/xlink" xml:space="preserve" xmlns:serif="http://www.serif.com/" style="fill-rule:evenodd;clip-rule:evenodd;stroke-linejoin:round;stroke-miterlimit:2;">
    <g>
        <path d="M322.02,20.184L304.89,62.457C311.943,65.233 318.747,68.497 325.262,72.215L333.882,58.941L349.557,69.121L340.92,82.417C341.77,83.045 342.612,83.683 343.45,84.327L323.705,107.062C328.699,110.809 333.411,114.912 337.805,119.33L357.559,96.584C357.746,96.768 357.939,96.95 358.126,97.134L369.921,86.516L382.425,100.406L370.635,111.02C375.345,116.907 379.64,123.137 383.481,129.668L397.595,122.478L406.077,139.131L391.985,146.308C395,153.185 397.54,160.315 399.563,167.661L415.015,164.378L418.899,182.658L403.454,185.94C404.568,193.314 405.164,200.858 405.224,208.53L421.001,209.357L420.021,228.021L404.281,227.196C403.446,234.806 402.067,242.252 400.191,249.499L415.138,254.356L409.361,272.13L394.439,267.28C391.672,274.37 388.409,281.214 384.689,287.766L397.831,296.303L387.651,311.977L374.521,303.449C370.028,309.557 365.103,315.326 359.796,320.722L370.256,332.339L356.366,344.845L345.929,333.251C340.029,337.985 333.789,342.313 327.239,346.175L334.289,360.013L317.639,368.497L310.606,354.694C303.708,357.728 296.551,360.279 289.179,362.314L292.392,377.437L274.112,381.321L270.902,366.214C263.497,367.339 255.924,367.949 248.22,368.011L247.412,383.421L228.75,382.441L229.557,367.073C221.912,366.239 214.43,364.865 207.152,362.981L202.414,377.561L184.641,371.784L189.371,357.234C182.247,354.454 175.374,351.171 168.796,347.431L160.468,360.253L144.796,350.073L153.126,337.249C152.196,336.564 151.278,335.865 150.364,335.161L170.212,312.308C165.215,308.565 160.502,304.466 156.104,300.051L136.256,322.904C136.1,322.752 135.942,322.602 135.786,322.449L124.43,332.675L111.926,318.785L123.273,308.569C118.71,302.869 114.536,296.844 110.783,290.539L71.883,314.249C81.398,330.143 93.015,344.635 106.355,357.337L85.78,381.027L99.892,393.282L120.467,369.589C155.227,397.111 199.167,413.549 246.949,413.549C248.314,413.549 249.675,413.526 251.033,413.499L251.033,432.972C216.899,448.328 191.918,469.654 171.28,492.878L368.82,492.878C349.146,468.558 323.985,448.885 288.036,433.166L288.036,409.41C380.944,390.406 450.836,308.226 450.836,209.73C450.836,151.636 426.521,99.22 387.513,62.094L408.093,38.396L393.983,26.143L373.399,49.843C357.935,37.603 340.649,27.565 322.023,20.183L322.02,20.184ZM246.912,102.848C187.78,102.848 140.074,150.54 140.074,209.648C140.074,268.758 187.78,316.448 246.912,316.448C306.044,316.448 353.75,268.758 353.75,209.648C353.75,200.273 352.547,191.186 350.29,182.528C340.046,207.615 327.21,227.678 304.385,249.478C287.498,247.991 274.673,241.398 263.742,229.512C269.79,220.652 276.832,212.292 290.838,207.41C278.274,179.127 272.648,150.842 269.445,122.56C281.909,127.15 289.605,134.49 298.68,147.514C306.392,149.211 315.543,140.658 321.95,133.539C302.676,114.549 276.198,102.847 246.912,102.847L246.912,102.848ZM214.432,167.878C232.052,180.438 246.839,199.364 252.462,220.395C241.397,229.651 235.555,241.519 232.542,254.801C249.499,263.031 262.59,276.098 274.192,291.021L274.192,291.028C239.754,287.623 205.947,281.893 175.496,263.864C163.324,243.04 156.389,222.214 155.576,201.39C172.176,193.865 188.776,196.454 205.376,202.285C214.598,190.815 214.562,181.363 214.432,167.877L214.432,167.878Z" style="fill:rgb(165,183,243);fill-rule:nonzero;"/>
    </g>
</svg>
