<?xml version="1.0" encoding="UTF-8" standalone="no"?>
<!DOCTYPE svg PUBLIC "-//W3C//DTD SVG 1.1//EN" "http://www.w3.org/Graphics/SVG/1.1/DTD/svg11.dtd">
<svg width="100%" height="100%" viewBox="0 0 512 512" version="1.1" xmlns="http://www.w3.org/2000/svg" xmlns:xlink="http://www.w3.org/1999/xlink" xml:space="preserve" xmlns:serif="http://www.serif.com/" style="fill-rule:evenodd;clip-rule:evenodd;stroke-linejoin:round;stroke-miterlimit:2;">
    <path d="M495.145,15.451L316.93,15.656C316.93,15.656 324.848,40.871 332.582,51.286C345.737,68.998 399.877,54.038 392.372,87L447.772,87C454.767,80.02 461.984,71.138 462.836,63.56C463.871,54.353 447.661,47.434 450.546,38.629C455.766,22.709 495.145,15.451 495.145,15.451ZM256,28.311L30.455,238.82L63.121,260.597L256,83.79L448.879,260.597L481.545,238.819L256,28.31L256,28.311ZM393,105L393,131.555L439,174.488L439,105L393,105ZM256,108.209L209.318,151L302.682,151L256,108.209ZM189.682,169L156.955,199L279,199L279,169L189.682,169ZM297,169L297,199L355.045,199L322.318,169L297,169ZM137.318,217L102.754,248.684L167,248.396L167,217L137.318,217ZM185,217L185,248.316L407.76,247.322L374.682,217L185,217ZM427.303,265.236L83.02,266.773L64.879,283.403L63.947,282.781C63.709,287.028 62.617,291.184 60.737,295L451.263,295C449.382,291.184 448.29,287.028 448.052,282.781L447.12,283.402L427.302,265.236L427.303,265.236ZM32,267C24.161,267 18,273.161 18,281C18,288.839 24.161,295 32,295C39.839,295 46,288.839 46,281C46,273.161 39.839,267 32,267ZM480,267C472.161,267 466,273.161 466,281C466,288.839 472.161,295 480,295C487.839,295 494,288.839 494,281C494,273.161 487.839,267 480,267ZM59.656,313C65.03,322.174 65.437,333.463 60.736,343L103,343L103,313L59.656,313ZM121,313L121,391L167,391L167,313L121,313ZM185,313L185,391L231,391L231,313L185,313ZM249,313L249,343L279,343L279,313L249,313ZM297,313L297,487L391,487L391,313L297,313ZM409,313L409,343L451.264,343C446.563,333.463 446.97,322.174 452.344,313L409,313ZM32,315C24.161,315 18,321.161 18,329C18,336.839 24.161,343 32,343C39.839,343 46,336.839 46,329C46,321.161 39.839,315 32,315ZM480,315C472.161,315 466,321.161 466,329C466,336.839 472.161,343 480,343C487.839,343 494,336.839 494,329C494,321.161 487.839,315 480,315ZM59.656,361C65.03,370.174 65.437,381.463 60.736,391L103,391L103,361L59.656,361ZM249,361L249,391L279,391L279,361L249,361ZM409,361L409,391L451.264,391C446.563,381.463 446.97,370.174 452.344,361L409,361ZM32,363C24.161,363 18,369.161 18,377C18,384.839 24.161,391 32,391C39.839,391 46,384.839 46,377C46,369.161 39.839,363 32,363ZM480,363C472.161,363 466,369.161 466,377C466,384.839 472.161,391 480,391C487.839,391 494,384.839 494,377C494,369.161 487.839,363 480,363ZM352,391L374,391L374,409L352,409L352,391ZM59.656,409C65.03,418.174 65.437,429.463 60.736,439L279,439L279,409L59.656,409ZM409,409L409,439L451.264,439C446.563,429.463 446.97,418.174 452.344,409L409,409ZM32,411C24.161,411 18,417.161 18,425C18,432.839 24.161,439 32,439C39.839,439 46,432.839 46,425C46,417.161 39.839,411 32,411ZM480,411C472.161,411 466,417.161 466,425C466,432.839 472.161,439 480,439C487.839,439 494,432.839 494,425C494,417.161 487.839,411 480,411ZM32,457C24.161,457 18,463.161 18,471C18,478.839 24.161,485 32,485C39.839,485 46,478.839 46,471C46,463.161 39.839,457 32,457ZM60.736,457C65.437,466.537 65.03,477.826 59.656,487L87,487L87,457L60.736,457ZM105,457L105,487L279,487L279,457L105,457ZM409,457L409,487L452.344,487C446.97,477.826 446.563,466.537 451.264,457L409,457ZM480,457C472.161,457 466,463.161 466,471C466,478.839 472.161,485 480,485C487.839,485 494,478.839 494,471C494,463.161 487.839,457 480,457Z" style="fill:rgb(165,183,243);fill-rule:nonzero;"/>
</svg>
