<?xml version="1.0" encoding="UTF-8" standalone="no"?>
<!DOCTYPE svg PUBLIC "-//W3C//DTD SVG 1.1//EN" "http://www.w3.org/Graphics/SVG/1.1/DTD/svg11.dtd">
<svg width="100%" height="100%" viewBox="0 0 512 512" version="1.1" xmlns="http://www.w3.org/2000/svg" xmlns:xlink="http://www.w3.org/1999/xlink" xml:space="preserve" xmlns:serif="http://www.serif.com/" style="fill-rule:evenodd;clip-rule:evenodd;stroke-linejoin:round;stroke-miterlimit:2;">
    <path d="M253.47,17.406C123.76,17.406 18.437,122.76 18.437,252.47C18.437,382.177 123.761,487.53 253.467,487.53C383.174,487.53 488.53,382.177 488.53,252.47C488.53,122.76 383.175,17.406 253.47,17.406ZM367.874,68.75C429.12,106.94 469.844,174.89 469.844,252.47C469.844,269.613 467.851,286.293 464.094,302.28L429.844,284.22L451.844,339.094C442.39,360.741 429.482,380.526 413.844,397.781L370.686,366.845L306.061,414.565L244.405,421.532L230.499,379.752L180.779,406.596L112.686,387.658L121.843,424.252C93.433,402.459 70.613,373.786 55.843,340.689L81.25,304.47L113.5,321.594L172.72,311.719L175.563,270.811L138.219,269.093L143.124,251.249L173.904,225.936L148.811,210.311L216.031,171.718L170.686,142.061L104.061,182.248L54.624,166.968C68.436,134.828 89.834,106.748 116.53,84.904L112.78,129.279L156.156,95.155L228.156,117.375L205.656,89.968L233,75.562L259.813,104.03L330.813,113.875L327.313,79.405L368.781,92.062L367.876,68.75L367.874,68.75ZM369.03,188.78L278,199.47L306.906,242.688L310.062,307.156L339.25,321L350.688,292.625L413.344,341.281L395.78,294L402.188,245.656L358.438,222.936L369.031,188.781L369.03,188.78ZM221,192.438L189.406,213.626L225.876,228.406L242.562,213.626L221,192.437L221,192.438ZM243.188,337.126L261.875,389.72L281.655,347.156L243.188,337.126Z" style="fill:rgb(165,183,243);fill-rule:nonzero;"/>
</svg>
