<?xml version="1.0" encoding="UTF-8" standalone="no"?>
<!DOCTYPE svg PUBLIC "-//W3C//DTD SVG 1.1//EN" "http://www.w3.org/Graphics/SVG/1.1/DTD/svg11.dtd">
<svg width="100%" height="100%" viewBox="0 0 512 512" version="1.1" xmlns="http://www.w3.org/2000/svg" xmlns:xlink="http://www.w3.org/1999/xlink" xml:space="preserve" xmlns:serif="http://www.serif.com/" style="fill-rule:evenodd;clip-rule:evenodd;stroke-linejoin:round;stroke-miterlimit:2;">
    <path d="M257.406,17.188C231.796,17.188 211.186,37.908 211.186,63.781C211.186,89.656 231.796,110.376 257.406,110.376C283.016,110.376 303.656,89.656 303.656,63.782C303.656,37.91 283.016,17.189 257.406,17.189L257.406,17.188ZM380.186,55.125L301.876,113.75C304.541,119.526 306.652,125.776 308.126,132.406L377.126,80.75L380.188,55.125L380.186,55.125ZM124.844,56.405L133.719,83.812L197.905,123.188C200.418,117.245 203.419,111.726 206.843,106.718L124.843,56.406L124.844,56.405ZM398.47,59.47L395.375,85.75L436.813,138.375C441.487,134.169 447.029,130.907 453.125,128.905L398.47,59.47ZM106.53,60.47L54.812,140.47C61.157,141.792 67.004,144.446 72.094,148.125L113.938,83.405L106.531,60.469L106.53,60.47ZM218.47,115.97C211.35,126.773 206.185,140.88 204.563,156.656C202.563,176.094 206.348,194.12 213.625,207.219C220.902,220.317 231.199,228.217 242.905,229.437C254.613,230.657 266.31,225.065 276.095,213.749C285.878,202.433 293.251,185.531 295.25,166.093C296.99,149.17 294.36,133.306 288.844,120.843C279.517,126.068 268.804,129.063 257.406,129.063C242.816,129.063 229.323,124.189 218.469,115.968L218.47,115.97ZM467.22,145.344C452.273,145.344 440.344,157.274 440.344,172.219C440.344,187.164 452.274,199.093 467.219,199.093C482.164,199.093 494.061,187.163 494.061,172.218C494.061,157.271 482.164,145.342 467.218,145.342L467.22,145.344ZM45.56,158.22C30.614,158.22 18.686,170.116 18.686,185.063C18.686,200.009 30.614,211.938 45.561,211.938C60.507,211.938 72.404,200.008 72.404,185.063C72.404,170.116 60.507,158.219 45.56,158.219L45.56,158.22ZM212.5,230.03C202.48,237.35 196.173,247.51 195.97,257.562C195.785,266.622 199.92,274.307 207.625,280.187C215.33,286.067 226.639,289.697 239.655,288.937C265.691,287.417 285.883,268.93 286.25,250.812C286.398,243.51 283.727,237.102 278.656,231.812C267.87,240.662 254.943,245.57 241.376,244.156C230.296,243.002 220.493,237.813 212.5,230.031L212.5,230.03ZM282.406,292.53C273.25,299.5 261.94,304.44 249.686,306.563L297.469,387.688L313.343,374.063L282.405,292.531L282.406,292.53ZM200.719,298.094L191.124,389.874L209.654,403.219L234.186,307.719C221.694,307.389 210.176,303.983 200.718,298.093L200.719,298.094ZM325.843,387.938L310.123,401.438L375.343,452.468C377.838,442.735 383.499,433.95 391.499,427.688L325.843,387.938ZM183.373,407.313L127.468,437.063C132.401,443.225 135.823,450.723 136.998,459.063C137.088,459.711 137.154,460.353 137.218,461L201.778,420.594L183.373,407.314L183.373,407.313ZM419.28,436.75C418.507,436.76 417.718,436.798 416.938,436.875C415.154,437.051 413.38,437.389 411.594,437.938C397.304,442.322 389.397,457.211 393.781,471.5C398.166,485.79 413.056,493.697 427.345,489.313C441.635,484.928 449.541,470.039 445.157,455.75C441.561,444.03 430.889,436.618 419.282,436.75L419.28,436.75ZM92.28,438.53C90.925,438.517 89.544,438.617 88.156,438.813C73.356,440.897 63.228,454.356 65.312,469.156C67.397,483.956 80.856,494.084 95.656,492C110.456,489.916 120.584,476.456 118.5,461.656C116.676,448.706 106.145,439.34 93.625,438.594C93.178,438.567 92.733,438.536 92.281,438.531L92.28,438.53Z" style="fill:rgb(165,183,243);fill-rule:nonzero;"/>
</svg>
