<?xml version="1.0" encoding="UTF-8" standalone="no"?>
<!DOCTYPE svg PUBLIC "-//W3C//DTD SVG 1.1//EN" "http://www.w3.org/Graphics/SVG/1.1/DTD/svg11.dtd">
<svg width="100%" height="100%" viewBox="0 0 512 512" version="1.1" xmlns="http://www.w3.org/2000/svg" xmlns:xlink="http://www.w3.org/1999/xlink" xml:space="preserve" xmlns:serif="http://www.serif.com/" style="fill-rule:evenodd;clip-rule:evenodd;stroke-linejoin:round;stroke-miterlimit:2;">
    <path d="M241.063,54.406C238.753,54.414 236.453,54.438 234.156,54.5C232.351,54.55 230.546,54.606 228.75,54.688C219.936,56.255 215.866,60.114 213.656,64.531C211.221,69.401 211.316,75.954 214.031,81.781C216.748,87.611 221.731,92.377 228.688,94.157C235.646,95.937 245.224,95.017 257.813,86.97L267.876,102.72C252.058,112.83 236.752,115.497 224.063,112.25C211.375,109.003 201.96,100.127 197.095,89.687C192.511,79.851 191.669,68.311 196.065,58.063C153.148,65.003 114.288,81.461 84.439,104.625C74.629,115.313 73.669,127.735 77.969,136.219C82.799,145.745 94.179,152.699 116.939,145.499L122.595,163.312C94.015,172.352 70.458,162.724 61.315,144.687C59.085,140.29 57.723,135.531 57.188,130.624C52.374,136.336 48.028,142.282 44.188,148.468L44.314,148.528C35.7,168.144 35.504,181.731 38.938,190.56C42.374,199.39 49.573,205 60.658,208.092C82.826,214.272 118.723,206.815 144.001,187.936C154.821,179.856 165.078,160.259 165.971,145.061C166.416,137.461 164.806,131.457 161.626,127.623C158.446,123.789 153.354,120.92 142.813,121.029L142.626,102.343C157.113,102.193 168.876,107.097 176.001,115.687C183.125,124.277 185.261,135.339 184.626,146.155C183.356,167.788 172.031,190.327 155.188,202.905C125.312,225.219 85.852,234.511 55.658,226.093C41.67,222.193 29.288,213.707 22.908,200.563C13.362,246.009 27.231,288.223 53.626,317.437C57.076,321.257 60.748,324.867 64.596,328.217C61.842,320.33 60.58,312.117 60.876,304.124C61.406,289.799 66.958,275.778 78.096,266.094C87.23,258.148 99.848,253.564 114.939,253.594C115.945,253.594 116.973,253.612 118.001,253.654C120.351,253.754 122.764,253.958 125.221,254.28L122.781,272.812C107.193,270.764 97.076,274.334 90.345,280.187C83.615,286.041 79.902,294.801 79.532,304.812C78.792,324.836 91.602,348.218 119.222,355L119.19,355.188C146.382,360.378 176.726,355.56 207.19,336.968C207.208,336.956 207.233,336.951 207.252,336.938C213.592,332.488 217.007,328.13 218.69,324.375C220.675,319.943 220.633,316.083 219.22,311.937C216.396,303.647 206.28,295.125 197.002,292.75C182,288.91 172.47,294.186 168.002,300.47C163.534,306.75 163.262,312.92 170.158,318.28L158.688,333.03C144.501,321.997 143.596,302.543 152.783,289.625C159.675,279.937 171.768,273.299 186.347,272.875C186.954,272.857 187.575,272.839 188.191,272.845C192.497,272.875 196.981,273.467 201.628,274.655C217.133,278.625 231.468,289.932 236.908,305.905C238.324,310.06 238.998,314.595 238.784,319.219C255.494,310.681 273.116,303.099 291.066,297.405C321.222,283.625 334.296,259.467 333.786,239.125C333.271,218.632 320.599,201.385 291.41,198.499L293.254,179.905C329.92,183.531 351.716,209.753 352.442,238.655C352.864,255.495 346.688,273.018 334.254,287.935C350.326,286.135 366.298,286.44 381.784,289.562C378.632,283.09 377.104,276.084 377.317,269.124C377.994,247.088 396.737,226.531 426.192,226.218C428.155,226.196 430.166,226.271 432.222,226.436L430.722,245.061C405.795,243.063 396.422,256.147 396.004,269.717C395.592,283.137 404.549,298.159 430.224,300.153C458.524,300.403 478.812,285.055 488.754,262.247C502.064,231.711 495.751,185.93 453.91,144.059C453.118,143.266 452.332,142.466 451.535,141.684C451.091,145.476 450.111,149.127 448.693,152.528C441.443,169.918 424.46,181.656 406.818,184.935C382.483,189.457 362.528,179.588 353.318,164.529C344.108,149.472 346.526,128.179 363.098,116.969L373.568,132.469C364.655,138.497 364.288,146.659 369.255,154.779C374.222,162.901 385.425,169.935 403.411,166.593C414.717,164.491 427.307,155.263 431.441,145.343C433.511,140.383 433.911,135.481 431.849,129.873C430.174,125.318 426.662,120.109 420.129,114.623L419.942,114.468C392.626,93.881 363.604,79.075 334.192,69.311C334.21,69.343 334.237,69.371 334.255,69.404C340.939,81.624 341.435,95.486 337.318,107.748C329.085,132.273 303.248,151.596 271.286,150.528C264.338,150.298 257.726,153.648 252.1,160.185C246.473,166.722 242.365,176.298 241.412,186.498C239.507,206.898 248.335,229.384 282.756,240.498L277,258.28C235.917,245.016 220.17,212.734 222.78,184.78C224.087,170.805 229.486,157.818 237.937,148C246.389,138.182 258.412,131.397 271.907,131.844C295.947,132.646 314.23,117.76 319.594,101.781C322.276,93.793 321.929,85.844 317.844,78.376C313.876,71.124 306.014,63.953 291.938,58.72C274.824,55.753 257.778,54.353 241.063,54.406ZM342.28,306.344C300.365,309.754 254.914,329.744 217,352.906C161.02,387.104 102.11,379.639 60.312,348.626C76.756,407.47 135.024,419.414 195.812,404.531C201.895,402.246 207.872,397.993 212.969,392.501C220.026,384.894 225.139,375.031 226.749,366.876L245.093,370.501C242.648,382.884 236.015,395.167 226.687,405.221C217.737,414.866 206.077,422.571 192.593,424.595C185.827,439.665 180.259,454.275 177.999,464.501C174.449,480.561 192.205,486.726 200.155,470.531C219.177,431.788 246.025,397.301 279.561,367.564C305.625,350.411 327.967,329.261 342.281,306.344L342.28,306.344Z" style="fill:rgb(165,183,243);"/>
</svg>
