<?xml version="1.0" encoding="UTF-8" standalone="no"?>
<!DOCTYPE svg PUBLIC "-//W3C//DTD SVG 1.1//EN" "http://www.w3.org/Graphics/SVG/1.1/DTD/svg11.dtd">
<svg width="100%" height="100%" viewBox="0 0 512 512" version="1.1" xmlns="http://www.w3.org/2000/svg" xmlns:xlink="http://www.w3.org/1999/xlink" xml:space="preserve" xmlns:serif="http://www.serif.com/" style="fill-rule:evenodd;clip-rule:evenodd;stroke-linejoin:round;stroke-miterlimit:2;">
    <g>
        <path d="M181.986,23.803C165.663,23.375 164.162,59.069 188.689,71.414C205.763,29.904 280.449,74.684 270.195,92.746C261.715,107.686 223.872,82.799 220.57,86.786C211.596,97.621 245.667,118.764 276.018,132.746L306.205,102.559C316.664,92.099 327.895,85.054 339.207,80.906C305.727,61.824 242.098,29.467 182.775,23.852C182.509,23.826 182.245,23.81 181.986,23.802L181.986,23.803ZM49.5,47.338C40.301,63.771 29.535,79.44 41.42,129.725L88.629,323.543C92.351,317.613 96.965,311.799 102.559,306.205L141.762,267.002L92.936,118.145C82.873,89.377 66.722,64.11 49.5,47.338ZM365.027,93.498C350.487,93.454 334.488,99.728 318.932,115.285L115.285,318.932C84.172,350.044 90.183,382.926 109.629,402.372C129.074,421.817 161.956,427.828 193.069,396.715L396.715,193.068C427.828,161.956 421.817,129.074 402.371,109.628C392.648,99.906 379.567,93.542 365.027,93.498ZM70.016,115.658L84.969,169.09L67.635,173.941L52.682,120.508L70.016,115.658ZM341.561,125.186L357.824,141.449L374.086,125.186L386.814,137.914L370.551,154.176L386.814,170.439L374.086,183.168L357.824,166.906L341.561,183.168L328.832,170.439L345.094,154.176L328.832,137.914L341.561,125.186ZM423.424,188.375C419.693,194.333 415.061,200.175 409.441,205.795L383.545,231.691L401.883,244.071L389.291,263.215L411.27,275.359L398.447,295.025L420.023,308.925L403.277,331.34L426.139,341.234L415.111,361.432L435.344,376.119L427.451,411.531L483.589,381.798L423.424,188.375ZM287.816,327.42L275.09,340.146L289.174,354.027C291.449,356.269 294.752,357.139 297.836,356.307L310.838,352.797L298.525,380.371C295.083,388.084 303.201,395.863 310.76,392.096L328.451,383.271L317.906,402.365C313.607,410.153 322.006,418.792 329.912,414.715L346.637,406.085L339.465,419.082C335.718,425.876 341.748,433.911 349.318,432.211L372.266,427.055C379.864,427.76 380.818,427.754 385.861,426.421L381.555,410.85C379.376,408.647 376.207,407.719 373.184,408.398L364.891,410.262L376.701,388.862C380.992,381.075 372.598,372.443 364.695,376.516L347.986,385.135L358.189,366.662C362.46,358.93 354.198,350.313 346.293,354.256L325.201,364.777L334.996,342.844C338.084,335.92 331.754,328.514 324.434,330.486L298.131,337.584L287.816,327.42ZM102.723,420.28L18.799,489.695L131.572,434.023C120.894,431.657 111.033,426.905 102.722,420.279L102.723,420.28Z" style="fill:rgb(165,183,243);fill-rule:nonzero;"/>
    </g>
</svg>
