<?xml version="1.0" encoding="UTF-8" standalone="no"?>
<!DOCTYPE svg PUBLIC "-//W3C//DTD SVG 1.1//EN" "http://www.w3.org/Graphics/SVG/1.1/DTD/svg11.dtd">
<svg width="100%" height="100%" viewBox="0 0 512 512" version="1.1" xmlns="http://www.w3.org/2000/svg" xmlns:xlink="http://www.w3.org/1999/xlink" xml:space="preserve" xmlns:serif="http://www.serif.com/" style="fill-rule:evenodd;clip-rule:evenodd;stroke-linejoin:round;stroke-miterlimit:2;">
    <path d="M256,32L160,80L183,80L183,151L151,151L151,201L181.945,201L155.36,440.244L154.707,440.721L155.229,441.441L151.054,479.007L150.06,487.952L167.95,489.942L168.945,480.996L171.61,457L340.39,457L343.055,480.994L344.049,489.939L361.939,487.949L360.944,479.005L356.77,441.438L357.293,440.718L356.639,440.242L330.054,201L361,201L361,151L329,151L329,80L352,80L256,32ZM208,96L240,96L240,144L208,144L208,96ZM272,96L304,96L304,144L272,144L272,96ZM169,169L183,169L183,183L169,183L169,169ZM201,169L215,169L215,183L201,183L201,169ZM233,169L247,169L247,183L233,183L233,169ZM265,169L279,169L279,183L265,183L265,169ZM297,169L311,169L311,183L297,183L297,169ZM329,169L343,169L343,183L329,183L329,169ZM215.672,201L296.328,201L256,236.848L215.672,201ZM199.022,210.283L240.33,247L194.945,247L199.025,210.283L199.022,210.283ZM312.977,210.283L317.057,247L271.672,247L312.977,210.283ZM192.945,265L224.328,265L189.506,295.953L192.946,265L192.945,265ZM251.422,265L260.578,265L312.328,311L199.672,311L251.422,265ZM287.67,265L319.055,265L322.495,295.953L287.67,265ZM203.678,329L308.322,329L256,367.053L203.678,329ZM184.878,337.586L236.323,375L180.723,375L184.88,337.586L184.878,337.586ZM327.121,337.586L331.278,375L275.678,375L327.122,337.586L327.121,337.586ZM178.724,393L220.324,393L175.064,425.914L178.724,393ZM250.928,393L261.073,393L324.323,439L187.678,439L250.928,393ZM291.678,393L333.279,393L336.937,425.914L291.678,393Z" style="fill:rgb(252,156,156);"/>
</svg>
