<?xml version="1.0" encoding="UTF-8" standalone="no"?>
<!DOCTYPE svg PUBLIC "-//W3C//DTD SVG 1.1//EN" "http://www.w3.org/Graphics/SVG/1.1/DTD/svg11.dtd">
<svg width="100%" height="100%" viewBox="0 0 512 512" version="1.1" xmlns="http://www.w3.org/2000/svg" xmlns:xlink="http://www.w3.org/1999/xlink" xml:space="preserve" xmlns:serif="http://www.serif.com/" style="fill-rule:evenodd;clip-rule:evenodd;stroke-linejoin:round;stroke-miterlimit:2;">
    <path d="M41.637,149.081C33.637,157.081 29.023,161.272 25.949,167.419C25.674,167.974 25.42,168.538 25.187,169.112C27.711,172.223 33.254,176.425 41.1,180.431C41.222,177.842 41.487,176.597 42.05,175.47C42.977,173.616 46.363,169.808 54.363,161.808L41.637,149.081ZM470.363,149.081L457.637,161.808C465.637,169.808 469.023,173.616 469.949,175.47C470.513,176.597 470.778,177.842 470.9,180.43C478.746,176.425 484.29,172.223 486.813,169.112C486.58,168.538 486.326,167.974 486.051,167.419C482.977,161.272 478.363,157.081 470.363,149.081ZM25,192.235L25,232.695C27.57,236.522 33.588,241.465 42.594,246.045C42.504,238.221 42.543,229.42 43.014,220.945C43.385,214.253 43.988,207.789 45.127,201.878C44.194,201.516 43.27,201.151 42.359,200.78C35.953,198.174 30.195,195.362 25,192.235ZM487,192.235C481.805,195.362 476.047,198.175 469.64,200.78C468.73,201.15 467.806,201.516 466.873,201.878C468.012,207.789 468.615,214.253 468.986,220.944C469.457,229.42 469.496,238.221 469.406,246.046C478.412,241.466 484.43,236.522 487,232.694L487,192.235ZM199.053,196.445L170.271,313.365L247,362.918L247,309.881L279,293.881L279,257.006L247,241.006L247,196.443L199.053,196.445ZM265,196.445L265,229.882L297,245.882L297,305.007L265,321.007L265,362.919L341.727,313.364L312.947,196.444L265,196.445ZM62.408,207.765C61.756,211.945 61.27,216.835 60.986,221.945C60.386,232.755 60.547,244.131 60.748,253.485C70.765,256.932 82.098,260.026 93.953,262.661C96.976,263.333 100.031,263.966 103.096,264.577C103.263,252.907 103.73,240.371 105.055,228.45C105.437,225.013 105.863,221.62 106.369,218.298C102.955,217.646 99.547,216.964 96.146,216.251C84.529,213.805 73.084,210.991 62.408,207.765ZM449.592,207.765C438.916,210.99 427.471,213.805 415.854,216.251C412.453,216.964 409.045,217.646 405.631,218.298C406.137,221.619 406.563,225.013 406.945,228.45C408.27,240.371 408.737,252.906 408.905,264.577C411.969,263.966 415.025,263.333 418.047,262.661C429.902,260.026 441.235,256.932 451.252,253.485C451.453,244.131 451.614,232.755 451.014,221.945C450.73,216.835 450.244,211.945 449.592,207.765ZM124.232,221.455C123.708,224.435 123.279,227.431 122.945,230.438C121.615,242.408 121.201,255.538 121.068,267.81C134.552,269.979 148.111,271.647 161.718,272.812L172.898,227.394C159.496,226.364 142.509,224.414 124.232,221.454L124.232,221.455ZM387.768,221.455C369.491,224.415 352.504,226.364 339.102,227.394L350.282,272.812C363.889,271.647 377.448,269.979 390.932,267.81C390.799,255.538 390.385,242.408 389.055,230.438C388.71,227.34 388.275,224.336 387.768,221.454L387.768,221.455ZM27.086,258.215L28.533,283.035C63.225,296.882 105.903,306.715 151.936,312.548L157.332,290.628C136.481,288.704 112.624,285.248 90.049,280.231C71.669,276.147 54.212,271.054 39.846,264.669C35.296,262.647 31.008,260.529 27.086,258.216L27.086,258.215ZM484.914,258.215C480.992,260.529 476.704,262.647 472.154,264.669C457.788,271.054 440.33,276.147 421.951,280.231C399.376,285.248 375.519,288.704 354.668,290.628L360.064,312.548C406.097,306.714 448.775,296.882 483.467,283.034L484.914,258.215Z" style="fill:rgb(252,156,156);fill-rule:nonzero;"/>
</svg>
