<?xml version="1.0" encoding="UTF-8" standalone="no"?>
<!DOCTYPE svg PUBLIC "-//W3C//DTD SVG 1.1//EN" "http://www.w3.org/Graphics/SVG/1.1/DTD/svg11.dtd">
<svg width="100%" height="100%" viewBox="0 0 512 512" version="1.1" xmlns="http://www.w3.org/2000/svg" xmlns:xlink="http://www.w3.org/1999/xlink" xml:space="preserve" xmlns:serif="http://www.serif.com/" style="fill-rule:evenodd;clip-rule:evenodd;stroke-linejoin:round;stroke-miterlimit:2;">
    <g>
        <path d="M209.5,18.66C202.1,18.64 194.7,20.59 190.3,25.62C187.2,29.21 185.5,34.08 190.3,44.81C195.5,52.89 199.6,63.87 203.2,77.93L185.3,82.59C179.2,58.86 171.5,49.59 166.8,47.49C164.4,46.45 162.1,46.35 158.5,47.49C154.8,48.6 150.1,51.17 145,54.96C137.1,60.76 132.4,68.18 132.6,74.21C136.3,86.63 145.7,92.81 157.6,98.4L149.6,115.2C145,113.1 140.9,110.8 137.2,108.4C123.9,101.1 114.1,98.02 109.2,98.43C106.6,98.65 105.1,99.28 103.2,101.2C101.2,103.2 98.8,106.9 96.7,112.8C93.2,122.7 92.7,130.5 95.2,134.6C97.2,137.8 102.4,141.5 115.3,142.8C118.6,142.9 122,143 125.7,143.2L125.7,143.3L126.8,143.3L127,162C123.2,162 119.7,161.9 116.4,161.6C105.3,161.5 98.7,162.4 96.2,163.7C94.6,164.5 94.1,165 93.3,166.7C92.4,168.5 91.5,171.8 90.9,176.7C90.3,181.2 90.7,184.3 91.6,186.5C92.5,188.6 93.7,190.1 96.9,191.8C103.4,195.3 118.6,197.6 144.2,195.5L145.7,214.1C128.5,215.6 115,215.6 104.2,213.6C108.9,228.7 118.7,235.5 129.9,235.5L223.9,235.5C234.5,235.5 243.7,227.8 247.3,213.4L255.4,181.3L265.3,212.9C270,227.7 279.5,235.5 288.8,235.5L383,235.5C394.2,235.5 404.1,228.6 408.7,213.5C397.8,215.6 384.1,215.6 366.3,214.1L367.9,195.5C393.5,197.6 408.6,195.3 415.1,191.8C418.3,190.1 419.5,188.6 420.4,186.5C421.8,180.2 422.5,167.2 415.9,163.7C413.4,162.5 406.8,161.5 395.7,161.6C392.4,161.9 388.9,162 385.1,162L385.3,143.3L386.3,143.3L386.3,143.2C390.1,143 393.5,142.9 396.7,142.8C409.6,141.5 414.9,137.8 416.9,134.6C419.4,130.5 418.9,122.7 415.3,112.8C413,106.6 409.3,99.03 402.9,98.43C385.8,100.5 373.8,108.1 362.5,115.2L354.5,98.4C358.9,96.42 362.2,94.18 366.2,91.84C376.4,84.96 379.2,78.82 379.5,74.21C379.7,68.18 374.9,60.76 367.1,54.96C361.9,51.17 357.3,48.61 353.6,47.49C350,46.38 347.6,46.48 345.3,47.49C343.6,48.21 341.6,49.83 339.5,52.58C333.8,61.59 329.1,73.89 326.8,82.58L308.7,77.92C312.8,62.16 317.5,50.27 323.7,41.99C327,33.2 325.4,28.87 322.6,25.61C313.2,17.88 294.3,15.88 283.9,23.62C279.4,26.96 275.8,32.12 273,38.62C267.5,51.59 265.9,69.49 265.9,82.61L265.9,82.71L265.7,113.5L265.7,113.6L247.1,113.6L247.1,113.5L246.9,82.67L246.9,82.57C246.9,69.45 245.3,51.55 239.7,38.54C237,32.04 233.4,26.88 228.9,23.54C224.4,20.68 216.9,18.68 209.5,18.66ZM256.7,236.6C248.8,247.3 237.3,254.2 223.9,254.2L181.1,254.2C183.1,258.5 186.5,262.4 191.1,266C202.9,275 223.2,281 244.7,282.4L244.1,283C236.2,291.5 210.9,289.5 196.1,283.9C161.1,271.1 128.2,262 94.82,272.8C51.05,290.1 19.96,339.7 29.29,385.9C39.65,437.2 96.14,510.1 150.4,485.7C211.7,458.1 161.8,371.2 125.1,353.6C133.6,376.8 164.9,433.5 136.5,445.5C102.3,459.9 54.94,401.9 67.02,358.6C87.73,301.2 133.1,309.1 166.4,321.1C226.7,342.8 197.6,491 261.6,488.2C300.5,486.5 347,427.5 310.3,381.9C314.2,410.5 289.9,457.4 267.4,445.3C233.6,427.2 279.6,360.8 311.1,338.7C335.5,321.6 381.7,310.6 400.6,335C430.4,373.6 347.4,409.2 372.9,453.3C395.4,492.3 448.6,500.7 490.5,442.5C461.4,459.9 421.9,468.3 410.9,444.1C396.8,413 473.6,408.8 480,368.1C485.8,331.4 461.7,294.2 430.4,274.2C390.5,248.6 321.1,305.1 270.1,281.9C289.8,279.8 308,273.8 318.7,265.2C322.9,261.8 326,258.2 328,254.2L288.8,254.2C275.9,254.2 264.6,247.2 256.7,236.6Z" style="fill:rgb(165,183,243);fill-rule:nonzero;"/>
    </g>
</svg>
