<?xml version="1.0" encoding="UTF-8" standalone="no"?>
<!DOCTYPE svg PUBLIC "-//W3C//DTD SVG 1.1//EN" "http://www.w3.org/Graphics/SVG/1.1/DTD/svg11.dtd">
<svg width="100%" height="100%" viewBox="0 0 512 512" version="1.1" xmlns="http://www.w3.org/2000/svg" xmlns:xlink="http://www.w3.org/1999/xlink" xml:space="preserve" xmlns:serif="http://www.serif.com/" style="fill-rule:evenodd;clip-rule:evenodd;stroke-linejoin:round;stroke-miterlimit:2;">
    <g>
        <path d="M255.406,17.75C189.313,39.42 124.536,85.124 79.03,150.344C100.268,207.784 111.75,244.658 111.75,281.719C111.75,318.212 100.23,355.442 79.625,411.374C129.345,448.104 179.705,470.324 229.938,476.312C224.886,415.934 220.108,355.564 231.531,295.187C200.887,291.907 170.147,281.901 139.501,264.467L139.501,193.155C220.171,235.41 298.409,234.702 381.564,193.155L381.564,264.468C351.504,278.844 321.372,289.19 291.314,293.748C299.998,354.208 299.037,414.663 293.344,475.123C339.73,467.788 386.234,446.299 432.376,410.811C398.41,297.857 398.346,264.878 432.97,150.341C391.162,84.844 317.924,39.89 255.405,17.75L255.406,17.75ZM180.281,229.75C169.121,229.62 160.635,232.924 159.031,238.906C156.701,247.606 169.809,258.666 188.313,263.626C206.818,268.583 223.701,265.546 226.033,256.844C228.363,248.144 215.258,237.084 196.751,232.124C190.968,230.574 185.355,229.809 180.281,229.75ZM340.971,229.75C335.897,229.81 330.284,230.575 324.501,232.125C305.994,237.085 292.888,248.143 295.221,256.845C297.551,265.545 314.434,268.583 332.938,263.625C351.443,258.667 364.551,247.607 362.22,238.905C360.616,232.925 352.13,229.619 340.97,229.75L340.971,229.75Z" style="fill:rgb(165,183,243);fill-rule:nonzero;"/>
    </g>
</svg>
