<?xml version="1.0" encoding="UTF-8" standalone="no"?>
<!DOCTYPE svg PUBLIC "-//W3C//DTD SVG 1.1//EN" "http://www.w3.org/Graphics/SVG/1.1/DTD/svg11.dtd">
<svg width="100%" height="100%" viewBox="0 0 512 512" version="1.1" xmlns="http://www.w3.org/2000/svg" xmlns:xlink="http://www.w3.org/1999/xlink" xml:space="preserve" xmlns:serif="http://www.serif.com/" style="fill-rule:evenodd;clip-rule:evenodd;stroke-linejoin:round;stroke-miterlimit:2;">
    <g>
        <path d="M18,18L18,225.053C37.25,243.956 71.07,262.327 102.973,272.986C131.083,282.378 149.626,285.806 169.859,278.324C185.724,272.458 204.031,268.102 216.299,260.204C228.565,252.308 235.633,243.224 232.119,220.838L232.083,220.605L232.06,220.371C231.733,217.211 231.315,213.893 230.852,210.505C230.672,210.553 230.499,210.605 230.316,210.651C219.488,213.434 204.03,214.931 184.559,211.007C183.209,211.837 181.844,212.647 180.452,213.417L172.575,217.772L163.865,202.022L171.739,197.666C191.259,186.87 207.822,166.121 217.794,150.232C217.432,148.982 217.049,147.722 216.674,146.467C203.82,155.363 185.646,159.643 164.501,151.412L156.114,148.147L162.644,131.373L171.03,134.638C190.04,142.038 200.898,137.141 210.166,128.7C217.61,121.92 222.962,112.392 226.496,104.98C200.162,74.25 174.97,45.817 150.072,18L18,18ZM202.098,18C211.981,32.11 225.613,47.61 242.041,62.97C244.363,62.142 246.755,61.313 249.267,60.508C261.383,56.621 275.147,52.736 288.155,53.27C292.491,53.447 296.742,54.116 300.819,55.44L309.379,58.22L303.823,75.338L295.263,72.561C287.557,70.061 269.626,72.881 254.765,77.647C245.905,80.489 238.313,83.553 233.608,85.571C237.035,89.549 240.476,93.556 243.944,97.616L247.594,101.886L245.36,107.04C244.136,109.862 242.46,113.656 240.256,117.873C251.176,131.225 266.579,144.947 277.286,152.717C294.686,165.345 319.651,180.512 339.17,184.615C348.93,186.667 356.698,186 362.27,182.619C367.842,179.237 372.696,172.647 375.13,158.476L376.654,149.604L394.394,152.654L392.869,161.522C392.829,161.745 392.783,161.958 392.743,162.179C424.637,175.982 455.32,184.534 480.193,184.999C485.043,185.089 489.645,184.874 493.999,184.366L493.999,106.63C485.663,113.318 475.059,121.242 461.323,130.742L451.083,115.939C472.05,101.436 485.12,90.98 494,82.956L494,18L202.098,18ZM61.868,19.408C72.931,19.981 180.486,76.463 150.398,66.058C148.811,65.51 140.772,64.406 129.801,63.434C132.791,68.919 134.644,75.01 135.204,81.294C135.9,89.104 134.526,96.012 131.161,101.224C127.796,106.434 121.817,110.177 114.083,108.98C106.349,107.784 99.53,102.062 95.13,95.65C90.73,89.24 88.067,81.707 87.37,73.898C86.977,69.475 87.248,65.342 88.168,61.643C65.426,61.857 44.204,64.533 39.938,72.918L61.11,19.53C61.258,19.43 61.514,19.39 61.87,19.408L61.868,19.408ZM110.111,64.412C109.624,64.337 108.603,64.43 107.298,66.452C105.993,68.472 105.026,72.192 105.428,76.689C105.828,81.186 107.493,85.315 109.2,87.802C110.906,90.289 111.972,90.707 112.46,90.782C112.95,90.858 113.972,90.762 115.277,88.742C116.582,86.72 117.549,83.002 117.147,78.502C116.747,74.005 115.082,69.879 113.375,67.392C111.668,64.905 110.6,64.487 110.111,64.412ZM299.144,88.514C299.72,88.524 300.299,88.544 300.88,88.578C319.48,89.628 338.736,101.024 358.518,121.793L345.482,134.207C327.522,115.349 311.545,107.207 299.865,106.549C288.185,105.889 279.252,111.223 271.425,125.042L255.765,116.172C265.565,98.867 281.26,88.207 299.143,88.512L299.144,88.514ZM223.897,173.498C218.473,180.838 212.071,188.384 204.727,195.352C213.463,195.64 220.495,194.59 225.839,193.217C226.601,193.021 227.269,192.821 227.954,192.621C226.801,186.468 225.44,180.066 223.897,173.499L223.897,173.498ZM387.413,179.561C384.943,184.838 381.849,189.286 378.188,192.864C409.944,217.576 438.548,247.584 456.112,284.101L457.006,285.958C487.024,325.698 496.606,379.646 488.881,426.38L488.454,428.965L486.704,430.915C458.892,461.963 412.882,478.195 371.62,484.512C350.988,487.669 331.52,488.275 315.648,486.462C299.776,484.647 286.765,481.754 279.734,470.926L278.699,469.332L278.397,467.457C276.554,456.012 275.787,444.987 274.47,434.205C257.375,453.372 244.838,473.019 238.254,494L494,494L494,202.477C489.4,202.92 484.678,203.087 479.857,202.997C451.811,202.472 419.973,193.567 387.412,179.561L387.413,179.561ZM18,248.918L18,299.262C27.123,306.062 51.478,324.2 80.78,345.758C98.485,358.784 116.317,371.81 129.924,381.543C136.07,385.939 140.984,389.378 144.964,392.1C145.384,390.893 145.674,390.242 146.137,388.83C148.717,380.954 151.864,370.196 154.885,359.436C159.573,342.733 163.165,329.028 164.898,322.369C163.732,315.295 163.328,307.431 163.752,298.704C142.65,302.914 121.709,298.224 97.268,290.058C69.034,280.623 39.933,266.161 18,248.918ZM426.607,280.86C426.049,280.842 425.52,280.833 425.104,280.865C420.248,281.235 418.901,282.938 416.944,285.117C415.641,286.57 414.381,288.587 412.129,291.08C409.876,293.572 405.569,296.757 400.405,296.99C395.752,297.2 391.59,295.177 389.055,293.34C386.521,291.503 384.963,289.897 383.595,288.844C380.859,286.738 379.885,285.482 372.355,287.204C369.185,287.928 368.375,289.242 366.528,292.762C365.605,294.522 364.711,296.669 363.4,299.086C362.09,301.503 360.308,304.616 356.305,306.799C353.403,308.379 350.37,308.207 348.568,307.825C346.768,307.445 345.642,306.92 344.613,306.46C342.556,305.54 340.93,304.696 339.066,304.047C335.338,302.747 331.126,301.827 323.273,304.895C316.729,307.452 316.479,308.938 315.793,310.685C315.45,311.559 315.253,312.675 314.576,314.791C313.899,316.908 311.668,321.368 307.252,323.081C303.477,324.545 299.599,324.256 296.91,323.685C294.22,323.113 292.28,322.399 290.352,321.919C286.496,320.959 282.694,320.294 274.782,322.869C270.172,324.369 264.892,330.915 262.447,339.729C260.047,348.377 260.869,358.154 263.604,363.071C293.722,397.106 291.614,432.654 295.802,461.811C298.062,463.415 305.72,467.211 317.688,468.577C323.301,469.219 329.668,469.512 336.543,469.441C337.629,435.207 328.933,392.501 316.353,364.614L332.758,357.21C346.628,387.95 355.646,431.106 354.603,468.483C359.263,468.047 364.045,467.461 368.893,466.719C378.255,465.285 387.853,463.246 397.353,460.612C390.821,424.182 385.338,384.665 365.783,350.944L381.353,341.914C402.719,378.759 408.433,419.764 414.646,455.094C423.042,452.042 431.186,448.506 438.83,444.487C436.915,401.739 431.743,365.054 414.512,338.347L429.637,328.587C448.417,357.695 454.043,393.943 456.313,433.757C461.923,429.721 467.036,425.347 471.497,420.642C478.629,372.262 464.75,315.248 428.28,280.919C427.75,280.909 427.163,280.879 426.604,280.859L426.607,280.86ZM18,321.7L18,494L219.545,494C227.343,465.154 244.722,439.184 267.84,414.88L203.262,375.652L203.197,375.612C193.36,369.405 183.387,361.874 175.917,350.882C174.727,355.246 173.497,359.729 172.215,364.302C169.159,375.187 165.979,386.075 163.242,394.434C161.874,398.614 160.637,402.127 159.455,404.934C158.865,406.337 158.331,407.531 157.52,408.864C157.114,409.532 156.68,410.24 155.72,411.219C154.757,412.197 153.002,414.159 148.867,414.159C146.39,414.159 145.894,413.697 145.307,413.469C144.719,413.239 144.342,413.049 143.977,412.862C143.247,412.486 142.611,412.11 141.879,411.662C140.415,410.764 138.639,409.595 136.474,408.128C132.144,405.192 126.32,401.094 119.452,396.182C105.717,386.357 87.852,373.304 70.112,360.254C49.467,345.066 31.506,331.74 18,321.7Z" style="fill:rgb(165,183,243);fill-rule:nonzero;"/>
    </g>
</svg>
